<svg width="49" height="48" viewBox="0 0 49 48" fill="none" xmlns="http://www.w3.org/2000/svg">
<g opacity="0.75" clip-path="url(#clip0_17_2499)">
<g clip-path="url(#clip1_17_2499)">
<path d="M22.4729 22.4207V17.9609H27.4607V22.4207H22.4729ZM27.4607 7V11.6122H22.4729V7H27.4607ZM33.3577 17.9694V22.4292H28.3699V17.9694H33.3577ZM21.5652 12.5271V17.0631H16.5774V12.5271H21.5652ZM27.4621 12.5271V17.0631H22.4729V12.5271H27.4621ZM48.4042 20.0772L49.3868 20.7576L48.7064 22.048C48.3593 22.7427 47.8763 23.3606 47.2861 23.8653C46.6958 24.3699 46.0103 24.751 45.2701 24.9859L45.2292 24.9972C44.1229 25.3321 42.9695 25.4852 41.8141 25.4504H41.8282C39.9082 30.2631 36.616 34.1892 32.4372 36.8461L32.3412 36.904C28.1948 39.4042 23.1873 40.8838 17.8339 40.8838C17.5515 40.8838 17.272 40.8795 16.9911 40.8711L17.032 40.8725C11.4885 40.8725 7.30541 39.2094 4.48283 35.8833C3.09711 34.1628 2.09931 32.1633 1.55765 30.0216L1.53506 29.9144C1.17785 28.5882 0.998861 27.2204 1.00283 25.8471C1.00283 25.0692 1.0593 24.3026 1.168 23.5544L1.15812 23.6391H34.0438L34.2527 23.6419C35.4585 23.6434 36.6464 23.3502 37.7129 22.7878L37.672 22.8075C36.9417 21.6246 36.6239 20.233 36.7685 18.8504L36.7656 18.8772C36.8282 17.4716 37.2517 16.1059 37.9953 14.9115L37.9755 14.9468L38.7322 13.888L39.7911 14.6447C40.5969 15.182 41.286 15.8765 41.817 16.6865C42.348 17.4965 42.7101 18.4053 42.8814 19.3586L42.8885 19.4024C43.9205 19.2481 44.9677 19.2244 46.0056 19.3318L45.9534 19.3275C46.8668 19.3614 47.7111 19.6381 48.4282 20.0927L48.4085 20.08L48.4042 20.0772ZM9.77412 17.9609V22.4207H4.78494V17.9609H9.77412ZM15.6711 17.9609V22.4207H10.6847V17.9609H15.6711ZM21.568 17.9609V22.4207H16.5774V17.9609H21.568ZM15.6697 12.5186V17.0546H10.6847V12.5186H15.6697Z" fill="white"/>
</g>
</g>
<defs>
<clipPath id="clip0_17_2499">
<rect width="48" height="48" fill="white" transform="translate(0.833313)"/>
</clipPath>
<clipPath id="clip1_17_2499">
<rect width="48" height="33.8824" fill="white" transform="translate(1 7)"/>
</clipPath>
</defs>
</svg>
