<svg width="48" height="48" viewBox="0 0 48 48" fill="none" xmlns="http://www.w3.org/2000/svg">
<g opacity="0.75">
<path d="M14.5146 18.3404L23.6252 13.0708C23.8594 12.9537 24.1404 12.9537 24.3746 13.0708L33.4852 18.3404C33.7194 18.4809 33.8599 18.7151 33.8599 18.9727V29.5119C33.8599 29.7695 33.7194 30.0037 33.4852 30.1443L24.3746 35.4139C24.2582 35.4717 24.1299 35.5017 23.9999 35.5017C23.8699 35.5017 23.7417 35.4717 23.6252 35.4139L14.5146 30.1443C14.4024 30.0808 14.3087 29.989 14.2429 29.8781C14.1772 29.7671 14.1417 29.6409 14.1399 29.5119V18.9727C14.1399 18.7151 14.2804 18.4809 14.5146 18.3404ZM47.7014 23.1416C48.0995 23.8208 48.0995 24.6171 47.7014 25.3197L36.8109 44.1263C36.4127 44.8289 35.7101 45.1568 34.8904 45.1568H13.1094C12.2897 45.1568 11.5871 44.8055 11.1889 44.1263L0.298448 25.3197C0.102939 24.9815 0 24.5978 0 24.2072C0 23.8166 0.102939 23.4329 0.298448 23.0947L11.1889 4.17102C11.5871 3.51525 12.2897 3 13.1094 3H34.8904C35.7101 3 36.4127 3.51525 36.8109 4.17102L47.7014 23.1416ZM38.6845 32.2755V16.2325C38.6845 15.9515 38.5206 15.6939 38.263 15.5533L24.3746 7.56698C24.2576 7.49798 24.1241 7.46159 23.9882 7.46159C23.8523 7.46159 23.7189 7.49798 23.6018 7.56698L9.73688 15.5533C9.47925 15.6939 9.31531 15.9515 9.31531 16.2325V32.2755C9.31531 32.5332 9.47925 32.7908 9.73688 32.9313L23.6252 40.9177C23.8594 41.0582 24.1639 41.0582 24.3981 40.9177L38.263 32.9313C38.385 32.8692 38.4884 32.7757 38.5625 32.6605C38.6366 32.5452 38.6787 32.4124 38.6845 32.2755Z" fill="white"/>
</g>
</svg>
