<svg width="49" height="48" viewBox="0 0 49 48" fill="none" xmlns="http://www.w3.org/2000/svg">
<g opacity="0.75" clip-path="url(#clip0_17_2268)">
<path d="M3.47063 0C1.91663 0 0.666626 1.25 0.666626 2.804V45.196C0.666626 46.75 1.91663 48 3.47063 48H45.8626C47.4166 48 48.6666 46.75 48.6666 45.196V2.804C48.6666 1.25 47.4166 0 45.8626 0H3.47063ZM9.23463 10.93H15.3106V37.066H9.23463V35.094H12.9606V12.9H9.23463V10.93ZM34.0226 10.93H40.0986V12.9H36.3726V35.096H40.0986V37.068H34.0226V10.93ZM18.3106 18.03H21.0106C21.2266 18.912 21.4786 19.858 21.7666 20.866C22.0726 21.856 22.3866 22.846 22.7106 23.836C23.0526 24.808 23.3946 25.752 23.7366 26.67C24.0786 27.59 24.4026 28.408 24.7086 29.128C25.0146 28.408 25.3386 27.588 25.6806 26.67C26.0226 25.752 26.3566 24.808 26.6806 23.836C27.0206 22.846 27.3366 21.856 27.6246 20.866C27.9306 19.858 28.1926 18.912 28.4086 18.03H31.0006C30.3196 20.5959 29.4902 23.1202 28.5166 25.59C27.6748 27.7778 26.765 29.9389 25.7886 32.07H23.5206C22.5426 29.936 21.6243 27.7752 20.7666 25.59C19.8102 23.1168 18.9903 20.593 18.3106 18.03Z" fill="white"/>
</g>
<defs>
<clipPath id="clip0_17_2268">
<rect width="48" height="48" fill="white" transform="translate(0.666626)"/>
</clipPath>
</defs>
</svg>
