<svg width="49" height="48" viewBox="0 0 49 48" fill="none" xmlns="http://www.w3.org/2000/svg">
<g opacity="0.75">
<path d="M28.8249 6.9302C27.9525 5.55714 28.2315 4.6517 28.7129 3.71692C29.1439 2.8801 29.32 1.42585 27.7972 0.281448C29.1992 -0.234646 31.4116 0.677823 31.4497 2.3491C30.6361 3.46848 28.4139 3.91332 28.8249 6.9302ZM38.8909 37.7846C38.2103 39.991 38.5206 41.1649 35.5604 45.7459C40.7944 42.2124 43.2638 37.6506 44.0788 32.473C44.5904 34.632 44.6388 36.5904 44.4378 38.4408C48.7751 32.7308 51.7469 21.2163 41.751 9.64173C41.3489 14.7579 36.4009 18.7864 30.6944 17.2068C40.4788 16.1282 41.1059 3.68664 32.7003 0.81376C32.8645 4.27501 28.142 3.14157 29.5308 7.77207C24.7207 5.0506 14.2112 4.49129 10.0333 8.62014C7.87945 10.7486 6.40926 12.509 3.71741 12.6253C1.49488 12.7213 -1.44006 16.3279 2.37857 18.1723C2.74326 19.7094 4.02501 20.5845 4.76826 20.7354C4.58329 23.4724 5.16557 22.0769 6.01869 20.8839C5.73201 24.3437 6.20451 23.0973 7.54157 21.3173C18.8544 19.0294 25.1019 28.2551 25.1726 33.9216C25.1229 32.8935 23.4794 31.6978 22.6096 32.0272C22.022 33.2722 21.3817 34.3288 20.5915 34.8502C20.6741 34.0247 20.6177 33.1992 20.4677 32.3739C20.2071 33.372 19.7165 34.4085 18.9324 35.4939C17.3726 35.581 15.1896 34.4209 15.8246 32.4977C16.7204 30.6274 14.9634 30.2385 13.5479 30.7739C12.4844 31.1763 11.7656 32.2906 11.6673 32.6371C11.3125 33.8869 11.4292 36.6772 13.856 38.5274C13.2198 38.6446 12.5667 38.749 12.1226 39.0102C16.2507 41.5069 20.4643 40.6633 22.8106 39.7212C26.6523 38.1788 29.302 33.9093 29.7165 30.6158C30.7829 35.2483 28.8725 40.3969 24.5905 43.1582C25.8139 43.2877 28.2086 42.4588 30.6573 41.5857C28.8061 43.9154 26.5934 46.1245 22.9685 47.863C30.1083 47.2649 35.3306 43.6801 38.8909 37.7846Z" fill="white"/>
</g>
</svg>
