<svg width="49" height="48" viewBox="0 0 49 48" fill="none" xmlns="http://www.w3.org/2000/svg">
<g opacity="0.75" clip-path="url(#clip0_17_2282)">
<path fill-rule="evenodd" clip-rule="evenodd" d="M0.166688 24C0.166842 19.8587 1.23862 15.7878 3.27781 12.1833C5.317 8.57883 8.2542 5.56333 11.8038 3.43004C15.3534 1.29676 19.3947 0.118286 23.5346 0.00921228C27.6745 -0.0998617 31.7722 0.864176 35.4292 2.80759C39.0862 4.751 42.1781 7.60765 44.4043 11.0998C46.6305 14.5919 47.9151 18.6006 48.1333 22.7362C48.3516 26.8718 47.4959 30.9935 45.6497 34.7005C43.8034 38.4075 41.0293 41.5737 37.5971 43.8912L15.8691 13.472C15.6722 13.1961 15.3928 12.9899 15.0712 12.883C14.7495 12.7761 14.4022 12.7742 14.0794 12.8774C13.7566 12.9806 13.4749 13.1837 13.2749 13.4573C13.0749 13.731 12.967 14.0611 12.9667 14.4V38.4H16.1667V19.392L34.8227 45.5104C31.1632 47.3238 27.1014 48.1732 23.0219 47.9784C18.9424 47.7836 14.9801 46.551 11.5101 44.3972C8.04 42.2434 5.17698 39.2396 3.19199 35.6703C1.20699 32.101 0.165708 28.0841 0.166688 24ZM32.1667 32V12.8H35.3667V32H32.1667Z" fill="white"/>
</g>
<defs>
<clipPath id="clip0_17_2282">
<rect width="48" height="48" fill="white" transform="translate(0.166687)"/>
</clipPath>
</defs>
</svg>
