<svg width="49" height="48" viewBox="0 0 49 48" fill="none" xmlns="http://www.w3.org/2000/svg">
<g opacity="0.75">
<path d="M24.6666 0L3.87665 12V36L24.6666 48L45.4566 36V12L24.6666 0ZM36.6666 33.18C36.6666 34.59 35.3747 35.76 33.6087 35.76C32.3467 35.76 30.9066 35.25 30.0066 34.14L18.0066 19.858V33.178C18.0066 34.62 16.8666 35.758 15.4586 35.758H15.3066C13.8646 35.758 12.7266 34.558 12.7266 33.178V14.82C12.7266 13.41 13.9866 12.24 15.7266 12.24C17.0186 12.24 18.4866 12.75 19.3866 13.86L31.3266 28.142V14.82C31.3266 13.378 32.5267 12.24 33.9067 12.24H34.0566C35.4966 12.24 36.6367 13.44 36.6367 14.82V33.18H36.6666Z" fill="white"/>
</g>
</svg>
