<svg width="49" height="48" viewBox="0 0 49 48" fill="none" xmlns="http://www.w3.org/2000/svg">
<g style="mix-blend-mode:luminosity" opacity="0.75" clip-path="url(#clip0_17_2296)">
<path d="M43.4867 7.54725H43.4904C43.0607 7.29975 42.5814 7.22475 42.0542 7.32H42.0504C41.5224 7.4145 41.1002 7.65525 40.7852 8.03625H40.7814V8.04C40.5189 8.358 40.3862 8.6925 40.3862 9.0525C39.2432 9.2025 38.1737 9.507 37.1709 9.94725C36.9309 8.937 36.3812 8.196 35.5314 7.731L35.4617 7.6935L36.6317 6.74325C36.8792 6.918 37.1732 7.01325 37.5122 7.026C37.7919 7.0365 38.0259 7.005 38.2149 6.9315C38.4212 6.858 38.6199 6.74625 38.8089 6.59625C39.2064 6.2715 39.4344 5.8725 39.4937 5.39775C39.5537 4.905 39.4262 4.47525 39.1127 4.10775C38.9604 3.9292 38.7727 3.78421 38.5615 3.68196C38.3503 3.57972 38.1202 3.52244 37.8857 3.51375H37.8782C37.3892 3.489 36.9482 3.636 36.5604 3.954L36.5567 3.95775C36.1652 4.27275 35.9379 4.67025 35.8742 5.15025V5.154C35.8217 5.5665 35.9057 5.934 36.1187 6.25875L34.7312 7.38375C34.1402 7.18875 33.4862 7.09725 32.7632 7.11375C31.7357 7.131 30.6384 7.365 29.4677 7.81275L28.3772 8.274C28.2444 7.76025 28.0592 7.365 27.8222 7.0965C27.4472 6.65925 27.0467 6.5475 26.6199 6.76125C26.2494 6.90825 25.9487 7.30275 25.7184 7.9425V7.94625C25.5122 8.51925 25.3959 9.23925 25.3757 10.11C24.4082 10.845 23.4632 11.7038 22.5444 12.69C20.6079 12.753 18.7907 13.0988 17.0889 13.7325H43.0892L42.8237 13.5675C42.2462 13.239 41.4849 13.005 40.5377 12.8625C39.5312 12.7088 38.4129 12.6675 37.1852 12.7335C37.2449 12.376 37.2844 12.0154 37.3037 11.6535C37.3209 11.301 37.3187 10.971 37.2887 10.6635C38.2809 10.206 39.3512 9.9015 40.4934 9.7485C40.5984 9.9615 40.7904 10.1685 41.0739 10.374L41.1437 10.419L41.2239 10.464C41.6514 10.7115 42.1292 10.7865 42.6602 10.6913C43.1912 10.596 43.6104 10.356 43.9292 9.975C44.2682 9.56625 44.3904 9.126 44.3042 8.6505C44.2179 8.175 43.9479 7.80825 43.4792 7.5495L43.4867 7.54725ZM36.6362 6.3345L36.6114 6.30675L36.6362 6.3315V6.3345Z" fill="white"/>
<path d="M46.9757 14.4015C46.6082 14.3415 46.2804 14.3978 45.9902 14.5695L45.9827 14.577C45.8117 14.6783 45.6789 14.8043 45.5852 14.9475C45.0504 14.874 44.5157 14.8388 43.9802 14.8425C43.8512 14.4165 43.5542 14.046 43.0892 13.731H17.0927C16.0299 14.1225 15.0167 14.6258 14.0477 15.2385C14.0267 14.8155 14.0852 14.4098 14.2224 14.019C14.4219 14.0115 14.6177 13.956 14.8134 13.848L14.8382 13.833L14.8734 13.812L14.9919 13.7318H12.4614C12.3361 13.8391 12.2041 13.9383 12.0662 14.0288C12.0587 14.0325 12.0512 14.0393 12.0489 14.0438C11.5464 14.3588 10.9764 14.5298 10.3359 14.5538C10.5422 14.2988 10.7312 14.0228 10.9089 13.7325H0.273926C0.345399 14.0228 0.459649 14.3008 0.612926 14.5575C0.895676 15.0503 1.43418 15.4628 2.22768 15.798C2.90268 16.0845 3.68268 16.284 4.57968 16.3995L5.25768 16.4693C4.68768 16.794 4.19268 17.1645 3.77268 17.5808C3.13293 18.213 2.82543 18.8213 2.85018 19.4055L2.63718 19.503L1.93443 19.842L2.66193 20.139C3.17455 20.3381 3.6515 20.619 4.07418 20.9708C4.07575 21.0854 4.10076 21.1984 4.14768 21.303V21.2955C4.23543 21.516 4.38918 21.687 4.61568 21.8055H4.61943C4.83021 21.9191 5.07603 21.949 5.30793 21.8895H5.31168C5.48643 21.8445 5.62668 21.7635 5.73468 21.642C5.90268 21.4568 5.96868 21.2258 5.93418 20.9498L5.92368 20.901L5.87868 20.7645C5.87118 20.754 5.87118 20.7473 5.86818 20.7435C5.79843 20.5935 5.69718 20.457 5.56443 20.3558L5.56818 20.3595C5.51568 20.3175 5.46318 20.283 5.40768 20.2545C5.26068 20.181 5.12118 20.1458 4.98018 20.142C4.92018 20.034 4.87518 19.932 4.85118 19.8383C4.82643 19.7303 4.82343 19.632 4.84743 19.5458C4.99743 19.0808 5.70693 18.693 6.94743 18.3885C6.95077 18.3984 6.95557 18.4078 6.96168 18.4163L7.32168 19.2413L8.01393 20.5418L7.04193 21.1463C7.03443 21.15 7.02693 21.1568 7.02093 21.1613C5.69643 22.014 4.38843 22.965 3.09843 24.0135H45.0317L45.0279 23.9265L45.0242 23.8005L44.9372 23.706C43.3884 22.0005 41.7459 20.571 40.0172 19.4175L39.5769 19.1205L39.4614 19.7355L36.9587 18.6555C38.6814 18.288 40.1087 17.8935 41.2367 17.4743C42.8867 16.8555 43.8092 16.2158 44.0079 15.552C44.4759 15.5483 44.9454 15.5768 45.4127 15.636C45.4299 15.87 45.5312 16.086 45.7127 16.2885L45.7164 16.2923C45.9369 16.5473 46.2302 16.701 46.6014 16.761C46.9727 16.821 47.2967 16.761 47.5914 16.59H47.5877C47.9162 16.398 48.1127 16.1355 48.1502 15.8003V15.804C48.2102 15.4718 48.1127 15.1643 47.8599 14.8815C47.6394 14.6265 47.3349 14.4728 46.9749 14.4135L46.9757 14.4015ZM13.0802 15.8138L13.1357 15.8513L12.1854 16.5923L12.1157 16.5023L12.3812 16.3485C12.6305 16.1927 12.8645 16.0136 13.0802 15.8138Z" fill="white"/>
<path d="M20.1369 6.77476C20.1369 6.49201 20.0357 6.24976 19.8369 6.05101C19.6382 5.85226 19.3967 5.75101 19.1132 5.75101C18.9786 5.74831 18.845 5.77328 18.7205 5.82437C18.596 5.87546 18.4833 5.95158 18.3894 6.04801V6.05176H18.3857C18.2893 6.14563 18.2131 6.2583 18.162 6.3828C18.111 6.5073 18.086 6.64097 18.0887 6.77551L18.0924 6.84901L17.8269 7.03051C17.6623 6.88555 17.4774 6.76553 17.2779 6.67426C17.146 6.61594 17.0092 6.56926 16.8692 6.53476C16.3622 6.41251 15.9114 6.48976 15.5169 6.76876H15.5207C15.1119 7.04101 14.8742 7.44376 14.8082 7.97476L14.6687 8.02351L14.5637 8.06551C14.5187 8.08276 14.4587 8.11051 14.3822 8.15551L14.3747 8.15926C13.9449 8.38651 13.5707 8.63176 13.2459 8.89426L13.2084 8.92576C12.8415 9.22077 12.524 9.57244 12.2679 9.96751C12.1389 10.17 12.0369 10.365 11.9679 10.5548C11.9863 10.1345 11.9474 9.7136 11.8524 9.30376C11.6529 8.41876 11.1219 7.72726 10.2624 7.22776C9.69244 6.88876 8.79769 6.57526 7.58494 6.28426H7.58119L6.08119 5.93476L4.59244 5.52226C3.51769 5.17501 2.65669 4.71001 2.02144 4.15051L1.20769 3.45001L1.44169 4.50001C1.63069 5.30026 1.64119 6.18751 1.47319 7.17001V7.17376C1.37569 7.74376 1.14844 8.61751 0.788439 9.78826C0.449439 10.8998 0.249939 11.7248 0.190689 12.2633V12.267C0.130689 12.8085 0.159189 13.2983 0.267939 13.7385H10.9029L11.3004 12.9938C11.5524 12.459 11.7339 11.9415 11.8419 11.4383C11.8708 11.6235 11.9399 11.8001 12.0444 11.9558L12.0594 11.9835L12.0804 12.0083C12.3279 12.3053 12.6609 12.4695 13.0832 12.501C13.0202 12.7035 13.0059 12.8985 13.0457 13.092C12.8604 13.3365 12.6647 13.5533 12.4547 13.7385H14.9852C15.1795 13.5892 15.3313 13.3917 15.4254 13.1655V13.1618L15.4292 13.1513L15.4502 13.0958C15.5762 12.7568 15.5657 12.4358 15.4224 12.1313C15.4052 12.0825 15.3624 12.0158 15.3024 11.9288L15.2814 11.904L15.2439 11.862C15.6562 11.5886 16.0393 11.2734 16.3869 10.9215H16.3907C16.4959 10.8167 16.5937 10.7047 16.6832 10.5863C17.1519 10.6763 17.5712 10.5938 17.9447 10.3388C18.3744 10.0485 18.6197 9.61501 18.6572 9.04576C18.667 8.92475 18.6683 8.8032 18.6609 8.68201C18.6498 8.53162 18.6229 8.3828 18.5807 8.23801V8.23426C18.556 8.14349 18.5244 8.05473 18.4862 7.96876L18.7622 7.74376C18.8723 7.78226 18.9883 7.8013 19.1049 7.80001C19.2389 7.80264 19.372 7.77763 19.4959 7.72653C19.6198 7.67543 19.7318 7.59934 19.8249 7.50301C19.9231 7.40945 20.0008 7.29658 20.0532 7.1715C20.1056 7.04643 20.1316 6.91186 20.1294 6.77626L20.1369 6.77476ZM16.0757 7.81276C16.108 7.76749 16.1481 7.72837 16.1942 7.69726C16.2708 7.64855 16.3574 7.61784 16.4475 7.60745C16.5377 7.59705 16.629 7.60725 16.7147 7.63726C16.4807 7.72726 16.2677 7.78726 16.0749 7.81201L16.0757 7.81276ZM17.2982 9.31276L17.2607 9.33376L17.3552 9.17326L17.3589 9.16276L17.3664 9.15226L17.3874 9.11701L17.5269 8.93551C17.4954 9.09601 17.4219 9.22201 17.2997 9.31276H17.2982ZM17.2629 9.26026L17.2667 9.24526C17.2629 9.25276 17.2629 9.26026 17.2629 9.26251M1.76419 25.1348L1.65619 25.2293L1.64869 25.3793C1.44919 28.1895 1.84069 30.999 2.82319 33.8063C2.84419 33.8663 2.87944 33.9188 2.92444 33.9563C2.96143 33.9876 3.00425 34.0113 3.05044 34.026L3.06769 34.0298L4.05319 34.2773H36.7532C36.9662 33.9323 37.1619 33.5783 37.3442 33.2183C37.5532 32.8261 37.7341 32.4195 37.8857 32.0018L38.5322 32.1105L38.9072 31.6665L39.1592 34.2765H40.0682L41.3019 34.1865H41.3297L41.3469 34.1828L41.3957 34.1723L44.1744 33.3473L43.4619 28.8383L44.5247 27.9893C44.5877 27.9368 44.6259 27.8768 44.6432 27.804C44.9582 26.5845 45.0909 25.329 45.0407 24.015H3.10519C2.64967 24.3826 2.20231 24.7602 1.76344 25.1475" fill="white"/>
<path d="M9.32645 35.865L9.31595 35.8725C9.07145 36.009 8.92445 36.2288 8.87195 36.5265V36.5228C8.81837 36.7896 8.86823 37.0668 9.01145 37.2983V37.302C9.05358 37.3771 9.10526 37.4464 9.1652 37.5083L8.9177 38.1863C8.5892 38.0078 8.2607 37.854 7.9322 37.7213H7.93595L7.58645 37.5848L7.16645 37.431L6.92195 39.8355C6.3557 40.5105 6.0482 41.1675 5.99945 41.7855V41.7893C5.92595 42.5393 6.21995 43.2188 6.88745 43.8143C7.5797 44.4263 8.33495 44.6565 9.15245 44.5065C9.91745 44.3738 10.5647 43.929 11.0919 43.1715L13.5842 42.4688L13.2692 42.06L12.5942 41.2455L13.5242 40.7978C13.5767 40.8293 13.6367 40.8608 13.6989 40.8855C13.927 40.9785 14.1806 40.9883 14.4152 40.9133H14.4114C14.6529 40.8398 14.8277 40.707 14.9364 40.518C17.1174 41.5808 19.5564 42.1118 22.2549 42.1155C24.9954 42.1155 27.5049 41.5665 29.7834 40.4655L30.3534 40.179C31.5384 39.5468 32.6604 38.76 33.7194 37.8195C34.9494 36.7245 35.9559 35.547 36.7389 34.2795H4.0517L7.5677 35.1675L8.32295 34.332C8.62223 34.8677 8.95724 35.3826 9.3257 35.8733L9.32645 35.865ZM10.7064 37.452C10.8259 37.5716 10.9472 37.6893 11.0702 37.8053C11.2202 37.9553 11.3852 38.1053 11.5487 38.2418L10.6787 39.3668L10.6749 39.363C10.6712 39.3593 10.6644 39.3555 10.6599 39.3525C10.6427 39.3375 10.6284 39.3278 10.6179 39.3173H10.6142C10.3592 39.111 9.99545 38.8523 9.5267 38.5373L9.7817 37.8383C10.0022 37.8758 10.2077 37.842 10.4004 37.7258H10.3967C10.5257 37.6523 10.6277 37.5578 10.6967 37.443L10.7064 37.452ZM12.0834 38.6895C12.4652 38.9931 12.8593 39.2808 13.2647 39.552C13.2339 39.5913 13.2071 39.6335 13.1844 39.678V39.6818C13.0944 39.8565 13.0689 40.0343 13.1147 40.2128L12.1119 40.6988L12.0909 40.6778C11.8097 40.3833 11.517 40.1001 11.2134 39.8288L12.0834 38.6895ZM39.1509 34.2713L39.1584 34.3373L40.0599 34.2713H39.1509Z" fill="white"/>
<path d="M12.1157 16.5015L12.067 16.4385M12.2417 16.665L12.1855 16.5915" stroke="white" stroke-width="0.005" stroke-miterlimit="10"/>
<path d="M46.1994 15.4005C45.2034 15.2055 44.2074 15.1455 43.2114 15.222" stroke="black" stroke-width="0.466" stroke-miterlimit="10" stroke-linecap="round" stroke-linejoin="round"/>
<path d="M41.1144 17.1345C43.0044 16.4295 43.8579 15.7222 43.6659 15.012C43.5437 14.562 43.2159 14.1795 42.6534 13.869C42.1082 13.569 41.3844 13.341 40.4859 13.2052C38.5734 12.915 36.2559 13.0267 33.5304 13.5442L32.7954 19.0312C36.4269 18.4762 39.2019 17.8425 41.1129 17.1337" fill="#00746B"/>
<path d="M43.4387 15.1035C43.3232 14.7285 42.9984 14.4285 42.4637 14.1945C41.9387 13.9672 41.2442 13.8195 40.3772 13.761C38.5352 13.6245 36.3047 13.8585 33.6797 14.4562L32.9747 19.1535C36.4734 18.4687 39.1397 17.7697 40.9817 17.0535C42.8027 16.344 43.6239 15.6937 43.4387 15.1035Z" fill="#2A5953"/>
<path d="M32.7962 19.032C36.4277 18.477 39.2027 17.8432 41.1137 17.1345C43.0037 16.4295 43.8572 15.7222 43.6652 15.012C43.543 14.562 43.2152 14.1795 42.6527 13.869C42.1075 13.569 41.3837 13.341 40.4852 13.2052C38.5727 12.915 36.2552 13.0267 33.5297 13.5442" stroke="black" stroke-width="0.466" stroke-miterlimit="10" stroke-linecap="round" stroke-linejoin="round"/>
<path d="M47.5967 15.1005C47.4257 14.9085 47.2014 14.8005 46.9187 14.748C46.6359 14.6955 46.3839 14.7442 46.1612 14.874C45.9384 15.0037 45.8087 15.189 45.7697 15.4155C45.7307 15.642 45.8049 15.8557 45.9759 16.0485C46.1469 16.2412 46.3712 16.3597 46.6539 16.4047C46.9367 16.4497 47.1887 16.4047 47.4114 16.2757C47.6342 16.1467 47.7677 15.9645 47.8029 15.7372C47.8382 15.51 47.7714 15.2962 47.5967 15.1005Z" fill="#F26D7D"/>
<path d="M47.5487 15.4463C47.4362 15.3203 47.2862 15.2438 47.101 15.2123C46.9297 15.1821 46.7534 15.2118 46.6015 15.2963C46.4545 15.3833 46.3675 15.5025 46.3427 15.6525C46.318 15.8025 46.3637 15.9428 46.4792 16.0725C46.5947 16.2023 46.7417 16.275 46.9262 16.3065C47.099 16.3373 47.277 16.3065 47.4295 16.2195C47.5795 16.1318 47.6635 16.017 47.6845 15.867C47.7055 15.717 47.6635 15.5768 47.548 15.447" fill="#B25963"/>
<path d="M46.9194 14.7472C46.6367 14.7022 46.3847 14.7435 46.1619 14.8732C45.9392 15.003 45.8094 15.1882 45.7704 15.4147C45.7314 15.6412 45.8057 15.855 45.9767 16.0477C46.1477 16.2405 46.3719 16.359 46.6547 16.404C46.9374 16.449 47.1894 16.404 47.4122 16.275C47.6349 16.146 47.7684 15.9637 47.8037 15.7365C47.8389 15.5092 47.7722 15.2962 47.5974 15.1005C47.4227 14.9047 47.2022 14.7997 46.9194 14.7472Z" stroke="black" stroke-width="0.466" stroke-miterlimit="10" stroke-linejoin="round"/>
<path d="M41.6177 14.8725C41.6177 14.5823 41.4782 14.3378 41.2014 14.1315C40.9247 13.9253 40.5939 13.8315 40.2017 13.8315C39.8094 13.8315 39.4742 13.9328 39.1989 14.1315C38.9237 14.3303 38.7864 14.5815 38.7864 14.8725C38.7864 15.1635 38.9229 15.4073 39.1989 15.6135C39.4749 15.8198 39.8102 15.9135 40.2017 15.9135C40.5932 15.9135 40.9254 15.8123 41.2014 15.6135C41.4774 15.4148 41.6177 15.1635 41.6177 14.8725Z" fill="#FFD064"/>
<path d="M41.2014 14.1322C40.9254 13.926 40.5939 13.8322 40.2017 13.8322C39.8094 13.8322 39.4742 13.9335 39.1989 14.1322C38.9237 14.331 38.7864 14.5822 38.7864 14.8732C38.7864 15.1642 38.9229 15.408 39.1989 15.6142C39.4749 15.8205 39.8102 15.9142 40.2017 15.9142C40.5932 15.9142 40.9254 15.813 41.2014 15.6142C41.4774 15.4155 41.6177 15.1642 41.6177 14.8732C41.6177 14.5822 41.4782 14.3385 41.2014 14.1322Z" stroke="black" stroke-width="0.279" stroke-miterlimit="10" stroke-linejoin="round"/>
<path d="M40.4642 14.796C40.4642 14.6948 40.4117 14.6108 40.3105 14.5373C40.2092 14.4638 40.0832 14.4293 39.94 14.4293C39.8069 14.4243 39.6757 14.4622 39.5657 14.5373C39.4645 14.6108 39.4157 14.6873 39.4157 14.796C39.4157 14.9048 39.4645 14.9813 39.5657 15.0548C39.6756 15.1301 39.8068 15.1683 39.94 15.1635C40.0825 15.1635 40.21 15.1283 40.3105 15.0548C40.411 14.9813 40.4642 14.9048 40.4642 14.796Z" fill="#2F211E"/>
<path d="M40.3105 14.5373C40.2092 14.4638 40.0832 14.4293 39.94 14.4293C39.8069 14.4243 39.6757 14.4622 39.5657 14.5373C39.4645 14.6108 39.4157 14.6873 39.4157 14.796C39.4157 14.9048 39.4645 14.9813 39.5657 15.0548C39.6756 15.1301 39.8068 15.1683 39.94 15.1635C40.0825 15.1635 40.21 15.1283 40.3105 15.0548C40.411 14.9813 40.4642 14.9048 40.4642 14.796C40.4642 14.6873 40.4117 14.6108 40.3105 14.5373Z" stroke="black" stroke-width="0.279" stroke-miterlimit="10" stroke-linejoin="round"/>
<path d="M41.2187 9.31501C39.6564 9.43726 38.2202 9.81451 36.9137 10.4513M36.7802 6.17026L34.5887 7.95001" stroke="black" stroke-width="0.466" stroke-miterlimit="10" stroke-linecap="round" stroke-linejoin="round"/>
<path d="M32.7752 7.4625C31.7852 7.47975 30.724 7.707 29.5952 8.1375C29.0958 8.32519 28.6079 8.54232 28.1342 8.78775C28.0187 8.11275 27.8342 7.63425 27.5612 7.323C27.3137 7.03275 27.0475 6.948 26.7677 7.0785C26.4775 7.2075 26.2397 7.5285 26.0515 8.061C25.8452 8.6445 25.7365 9.3855 25.7267 10.2885C24.6917 11.0573 23.6852 11.973 22.7072 13.032C25.276 16.0515 29.3372 17.883 34.8947 18.5295C35.1917 17.8545 35.4782 17.1735 35.7512 16.4573C36.4817 16.5135 37.1012 16.4498 37.5865 16.272C38.0305 16.1115 38.296 15.891 38.383 15.612C38.47 15.333 38.3552 15.081 38.038 14.8545C37.6885 14.5995 37.1605 14.439 36.4555 14.3685C36.7495 13.3305 36.9167 12.4215 36.958 11.6355C37.0525 9.8805 36.5207 8.682 35.3642 8.03925C34.6405 7.63725 33.7772 7.44525 32.7782 7.46625" fill="#7CC576"/>
<path d="M34.6832 8.68349C33.3587 8.21099 31.8347 8.38349 30.1187 9.19724C28.4057 10.0042 26.9837 11.2942 25.8474 13.0597C28.2872 14.0595 31.3029 15.7125 34.8924 18.0195C35.0615 17.7471 35.2201 17.4684 35.3679 17.184C35.5096 16.9108 35.6322 16.6282 35.7347 16.338C36.2897 16.3755 36.7832 16.317 37.2122 16.1527C37.6622 15.978 37.8759 15.744 37.8272 15.4537C37.7672 15.1012 37.1672 14.9122 36.0272 14.8875C36.1599 14.2095 36.2477 13.6125 36.2897 13.0912C36.3572 12.294 36.3422 11.5912 36.2522 11.0077C36.1719 10.5082 36.0422 10.1025 35.8644 9.79124C35.7123 9.52871 35.5228 9.2897 35.3019 9.08174C35.0919 8.88974 34.8857 8.75699 34.6832 8.68424" fill="#6F9B64"/>
<path d="M34.8932 18.5287L35.7497 16.4565C36.4802 16.5127 37.0997 16.449 37.5849 16.2712C38.0289 16.1107 38.2944 15.8902 38.3814 15.6112C38.4684 15.3322 38.3537 15.0802 38.0364 14.8537C37.6869 14.5987 37.1589 14.4382 36.4539 14.3677C36.7479 13.3297 36.9152 12.4207 36.9564 11.6347C37.0509 9.87974 36.5192 8.68124 35.3627 8.03849C34.6389 7.63649 33.7757 7.44449 32.7767 7.46549C31.7867 7.48274 30.7254 7.70999 29.5967 8.14049C29.0973 8.32822 28.6094 8.54535 28.1357 8.79074C28.0202 8.11574 27.8357 7.63724 27.5627 7.32599C27.3152 7.03574 27.0489 6.95099 26.7692 7.08149C26.4789 7.21049 26.2412 7.53149 26.0529 8.05649C25.8467 8.63999 25.7379 9.38099 25.7282 10.2825C24.6932 11.0512 23.6867 11.967 22.7087 13.026" stroke="black" stroke-width="0.466" stroke-miterlimit="10" stroke-linecap="round"/>
<path d="M32.3102 8.775C31.6337 8.72868 30.9621 8.91759 30.409 9.30975C29.8315 9.71475 29.479 10.2247 29.3537 10.8375C29.2285 11.4502 29.3687 11.991 29.77 12.4522C30.1675 12.9202 30.7135 13.176 31.405 13.2172C32.0965 13.2585 32.7325 13.0807 33.31 12.6757C33.8875 12.2707 34.2362 11.7667 34.3585 11.1517C34.4807 10.5367 34.3479 9.99825 33.9497 9.53325C33.5514 9.06825 33.0025 8.82075 32.3102 8.77575V8.775Z" stroke="#7CC576" stroke-width="0.746" stroke-miterlimit="10" stroke-linejoin="round"/>
<path d="M34.3757 11.115C34.5017 10.503 34.3652 9.96149 33.9669 9.49649C33.5687 9.03149 33.0197 8.78399 32.3274 8.73899C31.651 8.69267 30.9793 8.88158 30.4262 9.27374C29.8487 9.67874 29.4962 10.1887 29.3709 10.8015C29.2457 11.4142 29.3859 11.955 29.7872 12.4162C30.1847 12.8842 30.7307 13.14 31.4222 13.1812C32.1011 13.2303 32.7756 13.0386 33.3272 12.6397C33.9047 12.2377 34.2534 11.7307 34.3757 11.1157" fill="#FFF356"/>
<path d="M30.8567 9.90976C30.364 10.2488 30.0632 10.6748 29.9477 11.1893C29.8322 11.7038 29.9402 12.1538 30.2657 12.5415C30.5912 12.9293 31.0487 13.146 31.6255 13.1813C32.1968 13.2211 32.7642 13.0604 33.2297 12.7268C33.7187 12.3915 34.0195 11.9648 34.1312 11.4518C34.243 10.9388 34.1417 10.4873 33.8162 10.0958C33.4877 9.71101 33.0332 9.50176 32.4535 9.46276C31.8737 9.42376 31.342 9.57826 30.856 9.91051" fill="#CBBB4E"/>
<path d="M32.3267 8.73899C31.6502 8.69267 30.9786 8.88158 30.4254 9.27374C29.8479 9.67874 29.4954 10.1887 29.3702 10.8015C29.2449 11.4142 29.3852 11.955 29.7864 12.4162C30.1839 12.8842 30.7299 13.14 31.4214 13.1812C32.1003 13.2303 32.7748 13.0386 33.3264 12.6397C33.9039 12.2377 34.2527 11.7307 34.3749 11.1157C34.4972 10.5007 34.3644 9.96224 33.9662 9.49724C33.5679 9.03224 33.0189 8.78399 32.3267 8.73899Z" stroke="black" stroke-width="0.279" stroke-miterlimit="10" stroke-linejoin="round"/>
<path d="M30.9392 9.30225C30.7855 9.411 30.6917 9.54375 30.6557 9.69975C30.6197 9.85575 30.652 9.99975 30.7532 10.1228C30.8545 10.2458 30.9977 10.308 31.1762 10.3178C31.3547 10.3275 31.5212 10.2825 31.6757 10.1783C31.8302 10.074 31.9202 9.9405 31.9555 9.78075C31.9741 9.70812 31.9749 9.63207 31.9578 9.55907C31.9407 9.48607 31.9062 9.41828 31.8572 9.3615C31.756 9.23925 31.6127 9.1725 31.4342 9.162C31.2557 9.1515 31.0892 9.1995 30.9377 9.3015" fill="#FFF356"/>
<path d="M31.3142 10.3297C31.0193 10.3132 30.7259 10.3811 30.4682 10.5255C30.2132 10.6755 30.0557 10.8607 29.9995 11.088C29.9432 11.3152 30.007 11.511 30.1847 11.679C30.3625 11.847 30.6047 11.9445 30.9122 11.9617C31.2075 11.978 31.5013 11.9087 31.7582 11.7622C32.0132 11.6152 32.167 11.43 32.2232 11.2027C32.2795 10.9755 32.2195 10.7797 32.0417 10.6087C31.864 10.4377 31.6187 10.347 31.3142 10.3297Z" fill="#6F4D4A"/>
<path d="M30.4682 10.5255C30.2132 10.6755 30.0557 10.8608 29.9995 11.088C29.9432 11.3153 30.007 11.511 30.1847 11.679C30.3625 11.847 30.6047 11.9445 30.9122 11.9618C31.2075 11.978 31.5013 11.9087 31.7582 11.7623C32.0132 11.6153 32.167 11.43 32.2232 11.2028C32.2795 10.9755 32.2195 10.7798 32.0417 10.6088C31.864 10.4378 31.6187 10.3463 31.3142 10.329C31.0193 10.3125 30.7259 10.3804 30.4682 10.5248V10.5255Z" stroke="black" stroke-width="0.279" stroke-miterlimit="10" stroke-linejoin="round"/>
<path d="M37.8639 3.86249C37.4696 3.84148 37.082 3.97156 36.7802 4.22624C36.6284 4.3431 36.5011 4.48878 36.4057 4.65494C36.3104 4.8211 36.2488 5.00446 36.2244 5.19449C36.1757 5.58224 36.2769 5.92199 36.5244 6.21149C36.7719 6.50099 37.1049 6.66149 37.5099 6.67949C37.9023 6.70391 38.2891 6.57634 38.5899 6.32324C38.9147 6.06074 39.0999 5.73974 39.1494 5.35199C39.1989 4.96424 39.0969 4.62449 38.8494 4.33499C38.6019 4.04549 38.2689 3.88724 37.8639 3.86249Z" fill="#F26D7D"/>
<path d="M38.7482 4.8735C38.6593 4.77153 38.5505 4.68884 38.4285 4.63054C38.3065 4.57223 38.1738 4.53955 38.0387 4.5345C37.7484 4.5195 37.4897 4.608 37.2587 4.797C37.0277 4.986 36.8949 5.21325 36.8567 5.49225C36.8184 5.77125 36.8942 6.01725 37.0742 6.22725C37.1621 6.32995 37.2708 6.4129 37.3931 6.47068C37.5154 6.52845 37.6485 6.55974 37.7837 6.5625C38.0739 6.57975 38.3327 6.49275 38.5637 6.3075C38.7947 6.12225 38.9312 5.8845 38.9657 5.6085C39.0002 5.3325 38.9282 5.0835 38.7482 4.8735Z" fill="#C25E69"/>
<path d="M36.7802 4.227C36.6284 4.34386 36.5011 4.48955 36.4057 4.6557C36.3104 4.82186 36.2488 5.00522 36.2244 5.19525C36.1757 5.583 36.2769 5.92275 36.5244 6.21225C36.7719 6.50175 37.1049 6.66225 37.5099 6.68025C37.9023 6.70468 38.2891 6.5771 38.5899 6.324C38.9147 6.0615 39.0999 5.7405 39.1494 5.35275C39.1989 4.965 39.0969 4.62525 38.8494 4.33575C38.6019 4.04625 38.2689 3.888 37.8639 3.86325C37.4696 3.84225 37.082 3.97232 36.7802 4.227Z" stroke="black" stroke-width="0.466" stroke-miterlimit="10" stroke-linejoin="round"/>
<path d="M42.1142 7.66275C41.6702 7.743 41.3177 7.9425 41.0514 8.2605C40.7852 8.5785 40.6914 8.92425 40.7589 9.2955C40.8264 9.66675 41.0387 9.9555 41.3987 10.158C41.7587 10.3605 42.1562 10.4235 42.6009 10.3432C43.0457 10.263 43.3974 10.0672 43.6637 9.74925C43.9299 9.43125 44.0274 9.0855 43.9607 8.71125C43.8939 8.337 43.6779 8.05425 43.3179 7.85175C42.9579 7.64925 42.5604 7.58175 42.1157 7.66275" fill="#F26D7D"/>
<path d="M42.5402 8.3895C42.2418 8.37531 41.9471 8.45993 41.7017 8.63025C41.4542 8.80125 41.3102 9.015 41.2719 9.273C41.2337 9.531 41.3094 9.75525 41.5029 9.948C41.6964 10.1408 41.9529 10.245 42.2679 10.2593C42.5648 10.2776 42.8593 10.1952 43.1034 10.0253C43.3554 9.8505 43.4987 9.63375 43.5369 9.37875C43.5752 9.12375 43.4949 8.8965 43.3029 8.70375C43.1109 8.511 42.8559 8.40675 42.5409 8.38875" fill="#C25E69"/>
<path d="M41.0514 8.2605C40.7889 8.5785 40.6914 8.92425 40.7589 9.2955C40.8264 9.66675 41.0387 9.9555 41.3987 10.158C41.7587 10.3605 42.1562 10.4235 42.6009 10.3432C43.0457 10.263 43.3974 10.0672 43.6637 9.74925C43.9299 9.43125 44.0274 9.0855 43.9607 8.71125C43.8939 8.337 43.6779 8.05425 43.3179 7.85175C42.9579 7.64925 42.5604 7.58175 42.1157 7.66275C41.6709 7.74375 41.3192 7.9425 41.0529 8.2605H41.0514Z" stroke="black" stroke-width="0.466" stroke-miterlimit="10" stroke-linejoin="round"/>
<path d="M27.3467 8.30251C27.2207 8.15251 27.0842 8.12401 26.9417 8.21851C26.6237 8.43151 26.4069 9.04726 26.2914 10.0673L27.6714 9.13726C27.5912 8.73976 27.4824 8.46001 27.3467 8.30251Z" fill="#6F9B64"/>
<path d="M34.1627 17.229C31.195 14.4263 27.5432 13.0245 23.2127 13.0245C18.8822 13.0245 15.1352 14.427 11.9792 17.229C8.82321 20.031 7.18371 23.4225 7.05471 27.39C6.92571 31.3575 8.34096 34.7438 11.3072 37.5503C14.2735 40.3568 17.9297 41.7578 22.261 41.7578C26.5922 41.7578 30.3347 40.3553 33.4907 37.5503C36.6467 34.7453 38.293 31.3568 38.422 27.39C38.551 23.4233 37.132 20.0363 34.162 17.2298" fill="#C6996D"/>
<path d="M25.8369 13.0905C27.0564 13.695 28.1019 14.2995 28.9719 14.9078C29.7519 15.453 30.4607 16.0508 31.1004 16.704C28.2977 15.2993 25.4942 14.7015 22.6944 14.9115C20.1819 15.1005 17.8569 15.915 15.7217 17.3513C13.7364 18.6863 12.1667 20.3783 11.0139 22.4258C9.86645 24.4598 9.32945 26.4983 9.39545 28.542C9.3992 28.6433 9.39545 28.776 9.38795 28.947C9.37745 29.139 9.37295 29.2755 9.37295 29.352L7.9367 29.8343L7.3772 31.8263L9.1247 34.9718L10.1874 33.8153C10.5155 34.4715 10.8978 35.0992 11.3304 35.6918C11.7429 36.2513 12.2529 36.8415 12.8574 37.467C15.3699 40.047 18.5019 41.337 22.2519 41.337C26.0019 41.337 29.2772 40.047 32.0769 37.467C32.9124 36.6945 33.6182 35.9295 34.1919 35.1645C34.7619 34.413 35.2644 33.5745 35.7092 32.655L37.1342 33.0848L37.9382 30.8483L36.3377 30.4463C36.4562 29.8275 36.5327 29.1953 36.5687 28.5413C36.6774 26.5178 36.5537 24.8048 36.2012 23.4038C35.8727 22.1063 35.3237 20.9513 34.5512 19.9403L35.0267 18.0525C32.5142 15.2925 29.4519 13.638 25.8347 13.0898" fill="#8F6C5E"/>
<path d="M23.2127 13.0245C18.8822 13.0245 15.1352 14.427 11.9792 17.229C8.82321 20.031 7.18371 23.4225 7.05471 27.39C6.92571 31.3575 8.34096 34.7438 11.3072 37.5503C14.2735 40.3568 17.9297 41.7578 22.261 41.7578C26.5922 41.7578 30.3347 40.3553 33.4907 37.5503C36.6467 34.7453 38.293 31.3568 38.422 27.39C38.551 23.4233 37.132 20.0363 34.162 17.2298C31.192 14.4233 27.5425 13.0253 23.212 13.0253L23.2127 13.0245Z" stroke="black" stroke-width="0.466" stroke-miterlimit="10" stroke-linejoin="round"/>
<path d="M17.9567 7.70774C17.6739 7.29224 17.3139 7.02299 16.8767 6.89774C16.4394 6.77249 16.0554 6.82124 15.7164 7.04774C15.3774 7.27424 15.1884 7.62074 15.1464 8.07149C15.1044 8.52224 15.2267 8.95949 15.5102 9.37499C15.7937 9.79049 16.1499 10.0575 16.5864 10.182C17.0229 10.3065 17.4144 10.2622 17.7534 10.032C18.0924 9.80174 18.2784 9.45449 18.3159 9.00074C18.3534 8.54699 18.2394 8.11274 17.9559 7.70024L17.9567 7.70774ZM15.6017 8.14499C15.6264 7.81649 15.7517 7.57199 15.9992 7.40774C16.2467 7.24349 16.5242 7.21274 16.8272 7.30649C17.1452 7.40399 17.4077 7.60349 17.6147 7.90649C17.8217 8.20949 17.9117 8.52524 17.8869 8.85749C17.8622 9.18974 17.7369 9.43499 17.4954 9.59849C17.2539 9.76199 16.9704 9.79349 16.6599 9.69599C16.3494 9.59849 16.0824 9.39899 15.8769 9.09449C15.6714 8.78999 15.5769 8.47574 15.6009 8.14424" fill="#9DDFF9"/>
<path d="M18.2867 8.28751L18.0692 7.83301L17.7444 8.13301L17.8419 8.68201L18.2859 8.28001" fill="#86ADC0"/>
<path d="M16.8767 6.89699C16.4402 6.76799 16.0554 6.82049 15.7164 7.04699C15.3774 7.27349 15.1884 7.61999 15.1464 8.07074C15.1044 8.52149 15.2267 8.95874 15.5102 9.37424C15.7937 9.78974 16.1499 10.0567 16.5864 10.1812C17.0229 10.3057 17.4144 10.2615 17.7534 10.0312C18.0924 9.80099 18.2784 9.45374 18.3159 8.99999C18.3534 8.54624 18.2394 8.11199 17.9559 7.69949C17.6724 7.28699 17.3132 7.01474 16.8759 6.88949L16.8767 6.89699Z" stroke="black" stroke-width="0.279" stroke-miterlimit="10" stroke-linejoin="round"/>
<path d="M15.6002 8.14498C15.5754 8.47723 15.6699 8.79148 15.8762 9.09523C16.0824 9.39898 16.3412 9.59773 16.6592 9.69673C16.9772 9.79573 17.2532 9.76423 17.4947 9.59923C17.7362 9.43423 17.8652 9.19048 17.8862 8.85823C17.9072 8.52598 17.8202 8.21173 17.6139 7.90723C17.4077 7.60273 17.1459 7.40473 16.8264 7.30723C16.5152 7.21273 16.2392 7.24423 15.9984 7.40848C15.7577 7.57273 15.6234 7.81723 15.6009 8.14573L15.6002 8.14498Z" stroke="black" stroke-width="0.279" stroke-miterlimit="10" stroke-linejoin="round"/>
<path d="M14.6117 11.853C14.3777 11.793 14.1504 11.832 13.9232 11.961C13.6959 12.09 13.5354 12.279 13.4477 12.5235C13.3674 12.744 13.3599 12.9495 13.4327 13.149C13.0899 13.6417 12.6977 14.034 12.2552 14.319C12.4952 14.7277 12.7622 15.0705 13.0487 15.3427C13.2759 15.5557 13.5137 15.7275 13.7687 15.8565C13.6187 15.0735 13.6914 14.3362 13.9922 13.6402C14.2157 13.6927 14.4362 13.6552 14.6559 13.5277C14.8783 13.4044 15.0465 13.2024 15.1277 12.9615C15.2177 12.717 15.2117 12.486 15.1104 12.2692C15.0092 12.0525 14.8404 11.9092 14.6109 11.8492" fill="#543E3C"/>
<path d="M6.65942 16.1835C5.57567 16.6133 4.69442 17.1585 4.01717 17.8335C3.37442 18.4665 3.11192 19.071 3.23417 19.641C3.64292 19.5045 4.06667 19.4558 4.49942 19.491C4.64192 18.8483 5.53067 18.345 7.16192 17.9835C7.72817 19.4198 8.45492 20.7375 9.34667 21.933L14.5967 19.7655C13.4042 18.693 12.4052 17.5605 11.5907 16.3718C12.1847 16.1168 12.6744 15.774 13.0554 15.3518C12.7689 15.0788 12.5034 14.7368 12.2619 14.328C11.6364 14.73 10.9119 14.922 10.0914 14.9085C10.0562 16.6733 10.4514 18.621 11.2764 20.745C10.2174 20.0355 9.32267 19.3155 8.59142 18.5888C7.86305 17.8629 7.21713 17.0588 6.66542 16.191" fill="#FFD064"/>
<path d="M4.44692 20.829C4.41194 20.9385 4.41944 21.0571 4.46792 21.1613C4.52691 21.3055 4.63614 21.4236 4.77542 21.4935C4.92242 21.567 5.07242 21.588 5.22242 21.5498C5.37242 21.5115 5.47742 21.4313 5.54042 21.3023C5.57327 21.24 5.59131 21.171 5.59313 21.1006C5.59495 21.0302 5.5805 20.9604 5.55092 20.8965C5.49092 20.7495 5.38592 20.6378 5.25092 20.5643C5.11592 20.4908 4.95092 20.4698 4.81067 20.508C4.53842 20.133 4.43567 19.7918 4.50692 19.4843C4.07937 19.4484 3.64898 19.4994 3.24167 19.6343C3.0888 19.6809 2.94025 19.7406 2.79767 19.8128C3.40628 20.0504 3.96759 20.3948 4.45517 20.8298M8.73542 14.7053L6.95417 15.5055C6.87357 15.7386 6.77555 15.9652 6.66092 16.1835C7.21263 17.0513 7.85855 17.8554 8.58692 18.5813C9.31742 19.3088 10.2122 20.0288 11.2719 20.7375C10.4469 18.6128 10.0524 16.665 10.0869 14.901C9.63102 14.8869 9.17817 14.8215 8.73692 14.706" fill="#543E3C"/>
<path d="M4.61421 20.829C4.49196 21.0705 4.53396 21.2587 4.74696 21.402C4.95996 21.5452 5.21496 21.5415 5.49696 21.387C5.68896 20.8207 5.46546 20.5305 4.83321 20.5132C4.54671 20.136 4.41696 19.7932 4.44846 19.4857H3.82971C3.87846 19.9357 4.12971 20.3842 4.60596 20.8357M14.953 12.0112L14.638 11.784L13.6255 12.2212L14.0275 12.396C13.804 12.591 13.7162 12.8782 13.765 13.2525C13.5933 13.5565 13.3992 13.8473 13.1845 14.1225C12.9595 14.3925 12.7405 14.601 12.5095 14.7525L13.0757 15.4477C13.2047 15.4057 13.282 15.4102 13.2992 15.4552C13.334 14.7719 13.532 14.1068 13.8767 13.5157C15.0055 13.7392 15.3767 13.2397 14.9605 12.0127" fill="#3A2B29"/>
<path d="M3.83947 19.4865H4.45822C4.52572 18.7875 5.41222 18.267 7.11472 17.928L8.48722 20.6542L8.92447 20.3992L12.325 18.6202C11.755 17.6767 11.416 16.9042 11.308 16.2952C12.3707 16.0507 12.961 15.7642 13.0765 15.4327L12.5102 14.7375C12.0662 15.066 11.5952 15.2625 11.0912 15.3037C10.5985 15.3487 10.1012 15.2617 9.59572 15.0382L6.78322 16.3132C5.87122 16.8202 5.13322 17.358 4.59847 17.9347C4.04347 18.525 3.79072 19.0395 3.84097 19.4797" fill="#CBA357"/>
<path d="M14.6567 11.685H14.6529C14.3769 11.6115 14.1039 11.6535 13.8279 11.811C13.5624 11.961 13.3779 12.1815 13.2759 12.4635C13.1897 12.6719 13.1749 12.9029 13.2339 13.1205C12.9159 13.5608 12.5559 13.9103 12.1539 14.1728C11.5562 14.5538 10.8677 14.739 10.0817 14.7248C9.66917 14.7143 9.23267 14.6513 8.77442 14.5358L8.71442 14.5208L6.80642 15.3773L6.78167 15.4508C6.71137 15.6548 6.62614 15.8533 6.52667 16.0448C5.44667 16.4783 4.57667 17.0303 3.88817 17.7023C3.24842 18.3323 2.96192 18.936 3.03167 19.5173C2.92102 19.5568 2.81261 19.6024 2.70692 19.6538L2.35742 19.8248L2.72117 19.9748C3.29117 20.1983 3.80117 20.5028 4.24817 20.8898C4.23317 20.9978 4.25192 21.1103 4.30067 21.225C4.37337 21.409 4.51146 21.5596 4.68842 21.648H4.69217C4.86601 21.7398 5.0675 21.7647 5.25842 21.7178C5.46092 21.6653 5.60342 21.5528 5.69192 21.375V21.3788C5.77967 21.204 5.78642 21.0188 5.70917 20.8268H5.70542C5.63136 20.6446 5.49353 20.4956 5.31767 20.4075C5.18256 20.3359 5.02982 20.3045 4.87742 20.3168C4.68542 20.0265 4.61492 19.7618 4.66442 19.5203C4.80692 18.9653 5.60492 18.5168 7.05167 18.1815C7.61417 19.5765 8.33117 20.859 9.20117 22.029L9.28142 22.1378L14.9049 19.8128L14.7024 19.6275C13.5804 18.615 12.6264 17.5515 11.8434 16.4363C12.3159 16.209 12.7209 15.9263 13.0524 15.5873C13.2519 15.7583 13.4649 15.9023 13.6847 16.0148L13.9959 16.1753L13.9329 15.8258C13.7941 15.1608 13.8511 14.4699 14.0972 13.8368C14.3102 13.854 14.5247 13.8053 14.7369 13.683C14.9994 13.5293 15.1847 13.308 15.2859 13.023V13.0268C15.3947 12.7343 15.3834 12.4568 15.2612 12.1988H15.2649C15.1359 11.9288 14.9327 11.7585 14.6499 11.685H14.6567ZM4.13942 17.952C4.80317 17.298 5.66642 16.764 6.72542 16.347L6.75692 16.332L6.78467 16.3215L6.81617 16.2615C6.93467 16.0305 7.02917 15.8213 7.09592 15.6315L8.75342 14.8868C9.21842 15.0023 9.66242 15.0615 10.0809 15.072H10.0847C10.9097 15.087 11.6259 14.904 12.2597 14.523C12.4449 14.817 12.6444 15.075 12.8574 15.2955C12.4974 15.6705 12.0504 15.9705 11.5149 16.2008L11.3229 16.2878L11.4414 16.4588C12.2139 17.5838 13.1574 18.6713 14.2727 19.6988L9.40742 21.7088C8.55355 20.537 7.85452 19.26 7.32767 17.9093L7.27142 17.7698L7.12442 17.8013C5.45717 18.1688 4.53092 18.6923 4.34567 19.3673C4.02092 19.3568 3.69917 19.392 3.38792 19.4753C3.34592 18.993 3.59792 18.483 4.13942 17.9483V17.952ZM4.66442 20.6115L4.72742 20.7015L4.84967 20.6768C4.95467 20.649 5.05967 20.6618 5.16767 20.7188H5.16392C5.26765 20.7674 5.34893 20.8538 5.39117 20.9603C5.42867 21.0503 5.42642 21.1388 5.38742 21.2228H5.38367C5.34617 21.303 5.27567 21.3555 5.18117 21.3728C5.07317 21.3975 4.96367 21.3833 4.85642 21.3308C4.74917 21.2783 4.67492 21.1943 4.63292 21.0908V21.087H4.62917C4.59853 21.0212 4.59345 20.9464 4.61492 20.877L4.64642 20.7615L4.56617 20.6918C4.17092 20.3393 3.70967 20.0348 3.18242 19.7828L3.42017 19.6815C3.71042 19.6013 4.00367 19.563 4.30817 19.569C4.27292 19.887 4.39217 20.229 4.66442 20.604V20.6115ZM14.0094 12.114C14.1947 12.006 14.3799 11.9775 14.5689 12.024C14.6536 12.0442 14.7324 12.0838 14.7991 12.1396C14.8659 12.1955 14.9188 12.266 14.9537 12.3458V12.3495C15.0339 12.5205 15.0377 12.7058 14.9642 12.9045C14.8951 13.1061 14.7545 13.2753 14.5689 13.38C14.3904 13.4813 14.2127 13.5128 14.0304 13.4745L13.8879 13.443L13.8324 13.572C13.5624 14.187 13.4687 14.8373 13.5422 15.522C13.3884 15.4418 13.2069 15.3158 12.9969 15.1448C12.7974 14.9348 12.6122 14.6903 12.4344 14.4098C12.8604 14.1195 13.2414 13.7318 13.5774 13.2495L13.6299 13.1798L13.5984 13.0898C13.5422 12.9293 13.5459 12.7613 13.6134 12.5873V12.5835C13.6829 12.3832 13.825 12.2162 14.0117 12.1155" fill="black"/>
<path d="M10.0847 15.075H10.0809C9.63274 15.0618 9.18734 14.9997 8.75266 14.8897L7.09516 15.6345C7.0162 15.8503 6.92273 16.0605 6.81541 16.2637L6.78391 16.3237L6.75616 16.3342C7.28416 17.1442 7.89616 17.8927 8.58391 18.5812C9.31441 19.3087 10.2092 20.0287 11.2689 20.7375C10.4724 18.6825 10.0764 16.7947 10.0839 15.075" fill="#543E3C"/>
<path d="M10.0847 15.075C10.0772 16.7948 10.4725 18.6825 11.2697 20.7375C10.2107 20.028 9.31596 19.308 8.58471 18.5813C7.89621 17.8928 7.28421 17.145 6.75696 16.3343" stroke="black" stroke-width="0.093" stroke-miterlimit="10" stroke-linecap="round" stroke-linejoin="round"/>
<path d="M18.8642 7.00199L18.679 6.85199C17.6365 7.65224 16.7777 8.08949 16.1035 8.16974C16.1072 8.71124 16.3757 9.07499 16.9105 9.26474C17.1865 8.64599 17.8577 7.95449 18.931 7.19474L18.8635 7.00949" fill="#94625E"/>
<path d="M16.1042 8.16225L15.3692 8.20425C15.0865 8.23575 14.8097 8.32425 14.5337 8.46675C13.6352 8.94225 12.9752 9.50475 12.559 10.1542C12.154 10.7872 12.0835 11.3242 12.349 11.7652C12.688 12.15 13.2227 12.2437 13.9495 12.045C14.6972 11.8425 15.4315 11.3812 16.147 10.665C16.3675 10.4445 16.5347 10.215 16.6495 9.94875L16.9082 9.2565C16.3735 9.0675 16.1042 8.7045 16.1012 8.1615" fill="#F26D7D"/>
<path d="M18.4869 7.37625V7.125C17.5292 7.995 16.7919 8.54025 16.2714 8.76L16.8444 9.2985C17.1414 8.7915 17.6867 8.1525 18.4944 7.37625" fill="#74504D"/>
<path d="M13.0667 11.5913C13.3217 11.8815 13.7267 11.955 14.2794 11.8043C14.8457 11.6505 15.3144 11.4068 15.6819 11.0693C16.0494 10.7318 16.2692 10.4918 16.3457 10.3493L16.6187 9.82425C16.6562 9.67425 16.7372 9.492 16.8527 9.29625L16.2797 8.75775C16.1402 8.81775 16.0172 8.85225 15.9092 8.86275C15.6572 8.87325 15.4547 8.90775 15.3047 8.97075C15.1547 9.03375 14.8712 9.22275 14.4557 9.537C14.045 9.84379 13.6584 10.1815 13.2992 10.5473C12.9467 10.9073 12.8694 11.2568 13.0682 11.5898" fill="#A3555C"/>
<path d="M16.9105 9.2565C16.3757 9.0675 16.1065 8.7045 16.1035 8.1615" stroke="black" stroke-width="0.279" stroke-miterlimit="10" stroke-linecap="round" stroke-linejoin="round"/>
<path d="M18.8642 7.002L18.9317 7.18725C17.8592 7.94475 17.188 8.63775 16.9112 9.25725L16.6525 9.9495C16.537 10.2082 16.369 10.446 16.15 10.6657C15.4337 11.382 14.6995 11.8432 13.9525 12.0457C13.225 12.2452 12.691 12.1507 12.352 11.766C12.0865 11.3257 12.157 10.7872 12.562 10.155C12.9782 9.50475 13.6382 8.94225 14.5367 8.4675C14.8127 8.325 15.0887 8.2365 15.3722 8.205C15.6164 8.18229 15.8613 8.16829 16.1065 8.163C16.7815 8.08275 17.641 7.638 18.682 6.84525L18.8642 7.002Z" stroke="black" stroke-width="0.466" stroke-miterlimit="10" stroke-linejoin="round"/>
<path d="M13.5062 10.1925L13.0862 10.5773L13.5407 10.7693L13.8032 11.3318L14.1527 10.6988L15.0264 10.6463L14.6064 10.1738V9.51001L14.0289 9.77251" stroke="#F26D7D" stroke-width="0.466" stroke-miterlimit="10" stroke-linecap="round" stroke-linejoin="round"/>
<path d="M19.7867 6.77476C19.7867 6.58951 19.7192 6.42976 19.5872 6.29476C19.5253 6.23162 19.4513 6.18172 19.3695 6.14807C19.2878 6.11442 19.2001 6.09773 19.1117 6.09901C18.9264 6.09901 18.7667 6.16651 18.6332 6.29401C18.4997 6.42151 18.4382 6.58801 18.4382 6.77401C18.4369 6.86239 18.4536 6.95011 18.4872 7.03185C18.5209 7.11359 18.5708 7.18764 18.6339 7.24951C18.7667 7.38226 18.9279 7.44901 19.1124 7.44901C19.2969 7.44901 19.4574 7.38151 19.5879 7.24951C19.7184 7.11751 19.7874 6.95926 19.7874 6.77401" fill="#F26D7D"/>
<path d="M19.5879 6.29625C19.526 6.23312 19.452 6.18321 19.3703 6.14956C19.2885 6.11591 19.2008 6.09922 19.1124 6.1005C18.9272 6.1005 18.7674 6.168 18.6339 6.2955C18.5004 6.423 18.4389 6.5895 18.4389 6.7755C18.4376 6.86389 18.4543 6.95161 18.488 7.03335C18.5216 7.11509 18.5715 7.18914 18.6347 7.251C18.7674 7.38375 18.9287 7.4505 19.1132 7.4505C19.2977 7.4505 19.4582 7.383 19.5887 7.251C19.7192 7.119 19.7882 6.96075 19.7882 6.7755C19.7882 6.59025 19.7207 6.4305 19.5887 6.2955L19.5879 6.29625Z" stroke="black" stroke-width="0.466" stroke-miterlimit="10" stroke-linejoin="round"/>
<path d="M14.5937 9.47699L14.3012 9.61349L13.2137 10.6035L13.5287 10.7362L13.7912 11.2987L14.1407 10.6657L15.0144 10.6132L14.5944 10.1407L14.5937 9.47699Z" fill="#FFD064"/>
<path d="M14.2997 9.61276L14.0169 9.73876L13.5279 9.45901L13.4927 10.158L13.0727 10.5428L13.2122 10.6028L14.2997 9.61276Z" fill="white"/>
<path d="M14.2997 9.61276L14.0169 9.73876L13.5279 9.45901L13.4927 10.158L13.0727 10.5428L13.2122 10.6028L13.5272 10.7355L13.7897 11.298L14.1392 10.665L15.0129 10.6125L14.5929 10.14V9.47626L14.2997 9.61276Z" stroke="black" stroke-width="0.186" stroke-miterlimit="10" stroke-linejoin="round"/>
<path d="M18.3167 9.0075C18.3272 8.9025 18.3272 8.7975 18.3205 8.69625H17.8907C17.8945 8.74875 17.8907 8.80425 17.887 8.85675C17.866 9.189 17.737 9.43425 17.4955 9.59775C17.254 9.76125 16.9705 9.79275 16.66 9.69525C16.3495 9.59775 16.0825 9.39825 15.877 9.09375C15.6715 8.78925 15.577 8.475 15.601 8.1435C15.625 7.812 15.751 7.5705 15.9985 7.40625C16.246 7.242 16.5235 7.21125 16.8265 7.305C16.8437 7.30875 16.858 7.3155 16.8752 7.32225V6.89625C16.4387 6.76725 16.054 6.81975 15.715 7.04625C15.376 7.27275 15.187 7.61925 15.145 8.07C15.103 8.52075 15.2252 8.958 15.5087 9.3735C15.7922 9.789 16.1485 10.056 16.585 10.1805C17.0215 10.305 17.413 10.2608 17.752 10.0305C18.091 9.80025 18.277 9.453 18.3145 8.99925" fill="#9DDFF9"/>
<path d="M17.8892 8.69699C17.8929 8.74949 17.8892 8.80499 17.8854 8.85749C17.8644 9.18974 17.7354 9.43499 17.4939 9.59849C17.2524 9.76199 16.9689 9.79349 16.6584 9.69599C16.3479 9.59849 16.0809 9.39899 15.8754 9.09449C15.6699 8.78999 15.5754 8.47574 15.5994 8.14424C15.6234 7.81274 15.7494 7.57124 15.9969 7.40699C16.2444 7.24274 16.5219 7.21199 16.8249 7.30574C16.8422 7.30949 16.8564 7.31624 16.8737 7.32299" stroke="black" stroke-width="0.279" stroke-miterlimit="10" stroke-linecap="round" stroke-linejoin="round"/>
<path d="M16.8767 6.89699C16.4402 6.76799 16.0554 6.82049 15.7164 7.04699C15.3774 7.27349 15.1884 7.61999 15.1464 8.07074C15.1044 8.52149 15.2267 8.95874 15.5102 9.37424C15.7937 9.78974 16.1499 10.0567 16.5864 10.1812C17.0229 10.3057 17.4144 10.2615 17.7534 10.0312C18.0924 9.80099 18.2784 9.45374 18.3159 8.99999C18.3264 8.89499 18.3264 8.78999 18.3197 8.68874" stroke="black" stroke-width="0.279" stroke-miterlimit="10" stroke-linecap="round" stroke-linejoin="round"/>
<path d="M11.5067 9.37876C11.3252 8.59126 10.8497 7.97626 10.0817 7.52626C9.5327 7.20376 8.66945 6.90376 7.4987 6.62101L6.0017 6.27151L4.4882 5.85151C3.3542 5.48251 2.4542 5.00251 1.7867 4.41226C1.9862 5.25451 1.9997 6.19126 1.82195 7.22251C1.72445 7.80601 1.49345 8.69026 1.1267 9.88201C0.794447 10.9658 0.601697 11.769 0.543197 12.2933C0.455447 13.1183 0.578447 13.8135 0.913697 14.376C1.1687 14.8058 1.6547 15.1733 2.3642 15.4733C3.00695 15.7493 3.7592 15.9413 4.6142 16.0508C5.3902 16.1578 6.1761 16.1731 6.9557 16.0965C7.7207 16.0163 8.2907 15.852 8.66795 15.6C9.64295 14.9498 10.4117 14.0273 10.9817 12.8355C11.5727 11.5905 11.7437 10.4378 11.5067 9.37801" fill="#935A8C"/>
<path d="M10.0817 7.52626C9.5327 7.20376 8.66945 6.90376 7.4987 6.62101L6.0017 6.27151L4.4882 5.85151C3.3542 5.48251 2.4542 5.00251 1.7867 4.41226C1.9862 5.25451 1.9997 6.19126 1.82195 7.22251C1.72445 7.80601 1.49345 8.69026 1.1267 9.88201C0.794447 10.9658 0.601697 11.769 0.543197 12.2933C0.455447 13.1183 0.578447 13.8135 0.913697 14.376C1.1687 14.8058 1.6547 15.1733 2.3642 15.4733C3.00695 15.7493 3.7592 15.9413 4.6142 16.0508C5.4392 16.1595 6.2192 16.173 6.9557 16.0958C7.7207 16.0155 8.2907 15.8513 8.66795 15.5993C9.64295 14.949 10.4117 14.0265 10.9817 12.8348C11.5727 11.5898 11.7437 10.437 11.5067 9.37726C11.3252 8.58976 10.8497 7.97476 10.0817 7.52476V7.52626Z" stroke="black" stroke-width="0.466" stroke-miterlimit="10"/>
<path d="M11.1302 10.5637C11.0499 9.72149 10.6802 9.03674 10.0127 8.50124C9.34517 7.96574 8.71967 7.66874 8.12867 7.61624C7.53767 7.56374 6.92267 7.46624 6.27992 7.32974C5.63717 7.19324 5.03192 7.01474 4.46942 6.79499C3.90692 6.57524 3.27092 6.21149 2.56142 5.71124C2.71142 6.43499 2.68367 7.23524 2.48117 8.10899C2.36867 8.60174 2.12492 9.34649 1.74392 10.3492C1.40117 11.2612 1.19192 11.9392 1.11842 12.3832C1.00592 13.0822 1.09067 13.6807 1.37342 14.1727C1.59392 14.5477 1.94342 14.9077 2.42192 15.249C2.90042 15.5902 3.54392 15.8115 4.34792 15.9127C5.15192 16.014 5.92442 16.0552 6.67292 16.0417C7.42142 16.0282 8.08142 15.8242 8.67917 15.444C9.27692 15.0637 9.85667 14.364 10.4192 13.347C10.9817 12.33 11.2194 11.4045 11.1392 10.5615" fill="#674654"/>
<path d="M9.01216 7.85476C9.69691 7.99126 10.1762 8.37976 10.4522 8.99476C10.7672 9.71101 10.7109 10.5998 10.2842 11.6513C10.0397 12.2558 9.80566 12.7523 9.58141 13.1513L9.40291 13.4415C9.14041 13.8368 8.85391 14.1465 8.54341 14.3678C8.47061 14.42 8.39472 14.4679 8.31616 14.511C7.95616 14.7105 7.53016 14.8223 7.04116 14.8433L6.78241 14.847C6.17791 14.832 5.43241 14.697 4.54891 14.421C3.47266 14.0963 2.70391 13.617 2.23891 12.9915C1.81891 12.429 1.71391 11.8665 1.94191 11.304C2.16991 10.7415 2.63716 10.353 3.36091 10.14C4.16791 9.90601 5.11216 9.95851 6.19216 10.29C6.24466 9.40201 6.57691 8.73151 7.18816 8.27251C7.44247 8.07227 7.73814 7.93111 8.05374 7.85925C8.36934 7.78739 8.69698 7.78662 9.01291 7.85701L9.01216 7.85476Z" stroke="#935A8C" stroke-width="0.838" stroke-miterlimit="10"/>
<path d="M8.97692 7.78501C8.66093 7.71472 8.33327 7.71561 8.01766 7.7876C7.70206 7.85959 7.40642 8.00089 7.15217 8.20126C6.54017 8.65126 6.20867 9.33001 6.15617 10.2188C5.07617 9.87976 4.13267 9.82726 3.32492 10.0688C2.60117 10.2818 2.12942 10.6688 1.90592 11.2328C1.68242 11.7968 1.78367 12.3578 2.20292 12.9203C2.66792 13.5458 3.43667 14.025 4.51292 14.3498C4.99059 13.9541 5.49505 13.592 6.02267 13.266C6.48392 12.9833 6.96017 12.7275 7.45217 12.504C7.95703 12.272 8.47666 12.0736 9.00767 11.91L10.2482 11.5875C10.6757 10.5353 10.7304 9.64801 10.4162 8.93101C10.1402 8.30851 9.66092 7.92826 8.97617 7.79101" fill="#FFCA6D"/>
<path d="M10.249 11.58L9.00846 11.9025L9.54696 13.0725C9.77046 12.681 9.99696 12.1845 10.2497 11.5725M6.01671 13.2585C5.48908 13.5845 4.98463 13.9466 4.50696 14.3423C5.39196 14.6123 6.13596 14.7548 6.74046 14.7683C6.82672 14.7708 6.91305 14.7695 6.99921 14.7645L6.02421 13.2645" fill="white"/>
<path d="M9.36924 13.3635L9.54774 13.0733L9.00924 11.9033C8.47823 12.0668 7.9586 12.2652 7.45374 12.4973L8.50899 14.2898C8.82024 14.0693 9.10674 13.7588 9.36849 13.3635" fill="white"/>
<path d="M8.28173 14.433C8.36027 14.3898 8.43615 14.342 8.50898 14.2898L7.45373 12.4973C6.96098 12.7208 6.48623 12.9758 6.02423 13.2593L7.00673 14.7668C7.49573 14.7458 7.92173 14.634 8.28173 14.4345" fill="white"/>
<path d="M4.51369 14.3415C3.43744 14.0168 2.66869 13.5375 2.20369 12.912C1.78369 12.3495 1.67869 11.787 1.90669 11.2245C2.13469 10.662 2.60194 10.2743 3.32569 10.0605C4.13269 9.8265 5.07694 9.879 6.15694 10.2105C6.20944 9.3225 6.54169 8.652 7.15294 8.1855C7.40725 7.98527 7.70292 7.84411 8.01852 7.77224C8.33412 7.70038 8.66176 7.69962 8.97769 7.77C9.66244 7.9065 10.1417 8.295 10.4177 8.91C10.7327 9.62625 10.6764 10.515 10.2497 11.5665M10.2489 11.5725L9.00844 11.895M6.01669 13.2585C5.48907 13.5845 4.98461 13.9466 4.50694 14.3423M9.53194 13.0725L9.35344 13.3628C9.09094 13.758 8.80444 14.0678 8.49394 14.289" stroke="black" stroke-width="0.279" stroke-miterlimit="10" stroke-linecap="round"/>
<path d="M4.51447 14.3422C5.39797 14.6182 6.14347 14.7532 6.74797 14.7682L7.00672 14.7645C7.49422 14.7435 7.92172 14.6317 8.28172 14.4322C8.36045 14.3897 8.43635 14.3421 8.50897 14.2897M7.45297 12.4965L8.50822 14.2965M10.2482 11.5875C10.0037 12.192 9.76972 12.6885 9.54547 13.0875" stroke="black" stroke-width="0.279" stroke-miterlimit="10" stroke-linecap="round"/>
<path d="M9.01668 11.9025L9.55518 13.0725M6.03168 13.2585L7.00668 14.7585" stroke="black" stroke-width="0.279" stroke-miterlimit="10" stroke-linecap="round"/>
<path d="M9.01669 11.9025C8.48569 12.066 7.96606 12.2645 7.46119 12.4965C6.96844 12.72 6.48544 12.975 6.03094 13.2585" stroke="black" stroke-width="0.279" stroke-miterlimit="10" stroke-linecap="round"/>
<path d="M3.96469 11.6295C3.91247 11.6701 3.8702 11.7221 3.84109 11.7815C3.81198 11.8409 3.79679 11.9061 3.79669 11.9722C3.7968 12.0379 3.81202 12.1026 3.84115 12.1613C3.87028 12.2201 3.91255 12.2714 3.96469 12.3112C4.08072 12.4066 4.22701 12.4574 4.37719 12.4545C4.53769 12.4545 4.67419 12.4057 4.78594 12.312C4.89769 12.2182 4.95694 12.1057 4.95694 11.973C4.95706 11.9065 4.94166 11.8409 4.91198 11.7814C4.88229 11.7219 4.83914 11.6701 4.78594 11.6302C4.67344 11.5402 4.53844 11.4937 4.37719 11.4937C4.22804 11.4902 4.08227 11.5384 3.96469 11.6302" fill="#6F4D4A"/>
<path d="M3.79669 11.9722C3.7968 12.0379 3.81202 12.1026 3.84115 12.1613C3.87028 12.2201 3.91255 12.2714 3.96469 12.3112C4.08072 12.4066 4.22701 12.4574 4.37719 12.4545C4.53769 12.4545 4.67419 12.4057 4.78594 12.312C4.89769 12.2182 4.95694 12.1057 4.95694 11.973C4.95706 11.9065 4.94166 11.8409 4.91198 11.7814C4.88229 11.7219 4.83914 11.6701 4.78594 11.6302C4.67344 11.5402 4.53844 11.4937 4.37719 11.4937C4.22804 11.4902 4.08227 11.5384 3.96469 11.6302C3.91247 11.6708 3.8702 11.7228 3.84109 11.7822C3.81198 11.8416 3.79679 11.9061 3.79669 11.9722Z" stroke="black" stroke-width="0.279" stroke-miterlimit="10"/>
<path d="M8.97696 10.197C9.05721 10.0605 9.08571 9.921 9.06096 9.774C9.03621 9.627 8.96646 9.5295 8.85096 9.46275C8.73546 9.396 8.61096 9.38625 8.47371 9.435C8.33646 9.48375 8.22621 9.582 8.14521 9.7185C8.06421 9.855 8.04021 9.99825 8.06496 10.1415C8.08971 10.2847 8.15946 10.3935 8.27496 10.4595C8.33183 10.4922 8.39557 10.5112 8.46109 10.5148C8.5266 10.5185 8.59206 10.5067 8.65221 10.4805C8.78997 10.4268 8.90478 10.3268 8.97696 10.1977" fill="#6F4D4A"/>
<path d="M9.06169 9.774C9.03694 9.6315 8.96719 9.5295 8.85169 9.46275C8.73619 9.396 8.61169 9.38625 8.47444 9.435C8.33719 9.48375 8.22694 9.582 8.14594 9.7185C8.06494 9.855 8.04094 9.99825 8.06569 10.1415C8.09044 10.2847 8.16019 10.3935 8.27569 10.4595C8.33256 10.4922 8.39631 10.5112 8.46182 10.5148C8.52733 10.5185 8.59279 10.5067 8.65294 10.4805C8.79071 10.4268 8.90551 10.3268 8.97769 10.1977C9.05794 10.0612 9.08644 9.92175 9.06169 9.77475V9.774Z" stroke="black" stroke-width="0.279" stroke-miterlimit="10"/>
<path d="M19.4267 6.60374C19.3494 6.53024 19.2587 6.49124 19.1507 6.49124C19.0427 6.49124 18.9512 6.52874 18.8747 6.60374C18.8375 6.63936 18.8081 6.68224 18.7882 6.72972C18.7684 6.77721 18.7585 6.82827 18.7592 6.87974C18.7584 6.93178 18.7682 6.98342 18.7881 7.03153C18.808 7.07963 18.8374 7.12317 18.8747 7.15949C18.9103 7.19665 18.9532 7.22609 19.0007 7.24596C19.0482 7.26583 19.0992 7.27571 19.1507 7.27499C19.2022 7.27571 19.2532 7.26583 19.3007 7.24596C19.3482 7.22609 19.3911 7.19665 19.4267 7.15949C19.464 7.12317 19.4934 7.07963 19.5133 7.03153C19.5332 6.98342 19.543 6.93178 19.5422 6.87974C19.5429 6.82827 19.533 6.77721 19.5132 6.72972C19.4933 6.68224 19.4639 6.63936 19.4267 6.60374Z" fill="#A3555C"/>
<path d="M11.8007 41.2327L13.6112 40.359M10.5602 40.0965L12.4614 37.6215M9.00391 38.961L9.57391 37.3987" stroke="black" stroke-width="0.466" stroke-miterlimit="10" stroke-linecap="round" stroke-linejoin="round"/>
<path d="M10.4379 39.6285C9.46668 38.8485 8.47743 38.2763 7.46793 37.9125L7.25793 39.975L10.8752 42.8588L12.9902 42.2648C12.2027 41.241 11.3507 40.3635 10.4387 39.6293" fill="#F26D7D"/>
<path d="M10.8744 42.858L10.0644 42.2115C9.75318 42.6277 9.41793 42.8865 9.05418 42.9735C8.87803 43.0217 8.6929 43.0272 8.51418 42.9895C8.33547 42.9519 8.16834 42.872 8.02668 42.7567C7.69443 42.5092 7.55118 42.1732 7.58943 41.7502C7.62093 41.3797 7.79193 41.013 8.10318 40.6492L7.25718 39.9742C6.70218 40.6207 6.39768 41.2327 6.34518 41.8162C6.28893 42.4627 6.54768 43.0387 7.11768 43.5427C7.72218 44.0775 8.37918 44.28 9.08868 44.1502C9.79818 44.0205 10.3959 43.5907 10.8737 42.8572" fill="#9DDFF9"/>
<path d="M8.10322 40.65C7.79197 41.0137 7.62097 41.3805 7.58947 41.751C7.55197 42.174 7.69447 42.5085 8.02672 42.7575C8.16837 42.8728 8.33551 42.9526 8.51422 42.9903C8.69293 43.028 8.87806 43.0225 9.05422 42.9742C9.41797 42.8797 9.75322 42.6292 10.0645 42.2122L8.10322 40.65Z" fill="#716F75"/>
<path d="M10.6164 42.6L8.32742 40.7753L7.62842 40.2158C7.17842 40.7505 6.92342 41.2583 6.87692 41.7398C6.83192 42.2745 7.04192 42.75 7.51292 43.1648C8.01242 43.605 8.55542 43.7723 9.14192 43.6643C9.72842 43.5563 10.2219 43.203 10.6172 42.5993" fill="#86ADC0"/>
<path d="M10.4207 42.5265L12.1855 41.985C11.1205 40.5202 9.76296 39.3952 8.11296 38.6085L7.85046 40.3207L10.4192 42.5257" fill="#C25E69"/>
<path d="M7.16266 42.3165C7.20163 42.2797 7.23259 42.2353 7.25363 42.186C7.27466 42.1367 7.28531 42.0836 7.28491 42.03C7.28538 41.9758 7.27478 41.9222 7.25375 41.8722C7.23273 41.8223 7.20173 41.7772 7.16266 41.7397C7.08241 41.6595 6.98791 41.6212 6.87616 41.6212C6.76441 41.6212 6.66616 41.6587 6.58591 41.7397C6.50566 41.8207 6.46741 41.9182 6.46741 42.03C6.46741 42.1417 6.50491 42.2362 6.58591 42.3165C6.62341 42.3556 6.6685 42.3866 6.71841 42.4076C6.76832 42.4286 6.822 42.4392 6.87616 42.4387C6.92975 42.4391 6.98285 42.4285 7.03214 42.4075C7.08144 42.3864 7.12586 42.3555 7.16266 42.3165Z" fill="#9DDFF9"/>
<path d="M8.10322 40.65C7.79197 41.0137 7.62097 41.3805 7.58947 41.751C7.55197 42.174 7.69447 42.5085 8.02672 42.7575C8.16837 42.8728 8.33551 42.9526 8.51422 42.9903C8.69293 43.028 8.87806 43.0225 9.05422 42.9742C9.41797 42.8797 9.75322 42.6292 10.0645 42.2122L8.10322 40.65Z" fill="#685F63"/>
<path d="M10.8745 42.858L10.0645 42.2115C9.7532 42.6285 9.41795 42.8798 9.0542 42.9743C8.87805 43.0225 8.69292 43.028 8.5142 42.9903C8.33549 42.9526 8.16836 42.8728 8.0267 42.7575C7.86871 42.6458 7.7444 42.4929 7.6673 42.3154C7.59021 42.1379 7.56328 41.9427 7.58945 41.751C7.62095 41.3805 7.79195 41.0138 8.1032 40.65L7.2572 39.975" stroke="black" stroke-width="0.279" stroke-miterlimit="10" stroke-linecap="round"/>
<path d="M10.0637 42.2115L8.10321 40.65" stroke="black" stroke-width="0.279" stroke-miterlimit="10" stroke-linecap="round"/>
<path d="M10.4379 39.6285C11.3499 40.3635 12.2027 41.2395 12.9894 42.264L10.8744 42.858C10.3944 43.593 9.79818 44.022 9.08943 44.151C8.38068 44.28 7.72293 44.0775 7.11843 43.5435C6.54843 43.041 6.29043 42.4635 6.34593 41.817C6.39843 41.2335 6.70218 40.6215 7.25793 39.975L7.46793 37.9125C8.47818 38.2763 9.46743 38.85 10.4379 39.6285Z" stroke="black" stroke-width="0.466" stroke-miterlimit="10"/>
<path d="M9.21471 36.585C9.17946 36.7703 9.21096 36.96 9.31221 37.1235C9.41346 37.287 9.55221 37.4138 9.73221 37.473C9.81261 37.5036 9.89883 37.5159 9.98458 37.509C10.0703 37.502 10.1534 37.476 10.2278 37.4328C10.3022 37.3896 10.366 37.3303 10.4146 37.2593C10.4631 37.1882 10.4952 37.1073 10.5085 37.0223C10.5445 36.837 10.5085 36.6473 10.4072 36.4838C10.306 36.3203 10.1695 36.1935 9.99171 36.1343C9.81396 36.075 9.64671 36.0855 9.49221 36.1718C9.33771 36.258 9.24771 36.399 9.21621 36.5843M12.1862 36.819C12.1531 36.9018 12.139 36.991 12.1451 37.0799C12.1512 37.1689 12.1773 37.2553 12.2215 37.3328C12.3092 37.5075 12.4487 37.6328 12.6415 37.71C12.8342 37.7873 13.0225 37.7903 13.2077 37.725C13.2932 37.6984 13.3715 37.6529 13.4369 37.5917C13.5022 37.5305 13.5528 37.4553 13.585 37.3718C13.6182 37.2884 13.6322 37.1986 13.6261 37.109C13.62 37.0194 13.5939 36.9324 13.5497 36.8543C13.4622 36.6796 13.3107 36.5456 13.1267 36.48C12.9482 36.403 12.7471 36.3968 12.5642 36.4628C12.379 36.5288 12.253 36.648 12.187 36.819M13.8467 39.5588C13.6817 39.6113 13.567 39.7088 13.4972 39.8385C13.4637 39.9008 13.4462 39.9703 13.4462 40.041C13.4462 40.1117 13.4637 40.1813 13.4972 40.2435C13.5664 40.3858 13.6879 40.4959 13.8362 40.551C13.9896 40.6146 14.1609 40.6207 14.3185 40.5683C14.4835 40.5158 14.5945 40.4288 14.6612 40.296C14.6958 40.233 14.7144 40.1625 14.7156 40.0906C14.7168 40.0187 14.7004 39.9476 14.668 39.8835C14.5974 39.7438 14.4761 39.6362 14.329 39.5828C14.1763 39.5173 14.0053 39.5093 13.8467 39.5588Z" fill="#716F75"/>
<path d="M12.2207 37.3327C12.3084 37.5075 12.4479 37.6327 12.6407 37.71C12.8334 37.7872 13.0217 37.7902 13.2069 37.725C13.2924 37.6984 13.3707 37.6528 13.4361 37.5917C13.5014 37.5305 13.552 37.4553 13.5842 37.3717C13.6174 37.2883 13.6314 37.1986 13.6253 37.109C13.6192 37.0194 13.5931 36.9324 13.5489 36.8542C13.4614 36.6796 13.3099 36.5455 13.1259 36.48C12.9474 36.403 12.7463 36.3968 12.5634 36.4627C12.4779 36.4901 12.3996 36.5363 12.3343 36.598C12.269 36.6596 12.2184 36.7352 12.1862 36.819C12.153 36.9018 12.139 36.9909 12.1451 37.0799C12.1512 37.1688 12.1765 37.2553 12.2207 37.3327ZM13.4957 39.8377C13.4297 39.9705 13.4297 40.1077 13.4957 40.2427C13.5649 40.385 13.6863 40.4952 13.8347 40.5502C13.9881 40.6138 14.1593 40.62 14.3169 40.5675C14.4819 40.515 14.5929 40.428 14.6597 40.2952C14.6942 40.2322 14.7129 40.1617 14.7141 40.0898C14.7152 40.018 14.6989 39.9469 14.6664 39.8827C14.5958 39.743 14.4746 39.6354 14.3274 39.582C14.1747 39.5166 14.0037 39.5078 13.8452 39.5572C13.6802 39.6097 13.5654 39.708 13.4957 39.8377ZM9.31216 37.1227C9.41341 37.2937 9.55216 37.413 9.73216 37.4722C9.81256 37.5029 9.89878 37.5152 9.98453 37.5082C10.0703 37.5012 10.1534 37.4752 10.2278 37.432C10.3022 37.3888 10.366 37.3295 10.4145 37.2585C10.4631 37.1875 10.4952 37.1065 10.5084 37.0215C10.5444 36.8362 10.5084 36.6465 10.4072 36.483C10.3059 36.3195 10.1694 36.1927 9.99166 36.1335C9.81391 36.0742 9.64666 36.0847 9.49216 36.171C9.33766 36.2572 9.24766 36.3982 9.21616 36.5835C9.18466 36.7687 9.21241 36.9585 9.31366 37.122L9.31216 37.1227Z" stroke="black" stroke-width="0.466" stroke-miterlimit="10" stroke-linejoin="round"/>
<path d="M20.2832 14.25C19.4132 14.1075 18.4622 14.2185 17.4279 14.589C16.3937 14.9595 15.5904 15.477 15.0092 16.1415C14.4279 16.806 14.2404 17.4278 14.4467 18.0045C14.6529 18.5813 15.1944 18.942 16.0652 19.0845C16.9359 19.227 17.8862 19.1123 18.9174 18.7418C19.9487 18.3713 20.7594 17.8538 21.3399 17.1938C21.9234 16.5188 22.1087 15.9075 21.9024 15.3308C21.6962 14.754 21.1547 14.3933 20.2839 14.2508" fill="#C6996D"/>
<path d="M18.5117 18.2565C19.4312 17.9805 20.1647 17.5815 20.7167 17.0685C21.2687 16.5555 21.472 16.0687 21.3355 15.618C21.199 15.1672 20.758 14.8732 20.0177 14.751C19.2775 14.6287 18.4412 14.706 17.5225 14.982C16.6037 15.258 15.865 15.657 15.3175 16.17C14.77 16.683 14.5622 17.166 14.6987 17.6205C14.8352 18.075 15.2762 18.3615 16.0165 18.4875C16.7567 18.6135 17.593 18.5325 18.5117 18.2565Z" fill="#8F6C5E"/>
<path d="M44.8539 23.859L44.8089 23.814C43.2714 22.119 41.6424 20.7 39.9189 19.554L39.6984 19.404L39.5904 19.9815C37.7182 19.1056 35.7973 18.3379 33.8372 17.682H33.8297C33.8192 17.6783 33.8049 17.6745 33.7944 17.6745C30.6032 16.9268 27.4232 16.458 24.2394 16.272L24.0579 16.2615L23.9844 19.8368C23.9844 19.8473 23.9844 19.854 23.9882 19.8645L24.4532 23.2305L25.5579 23.9153L24.1667 23.8973L20.6957 16.6373L16.3929 17.34L15.8229 19.944L14.5194 17.7593C14.4984 17.7218 14.4669 17.6963 14.4294 17.682C14.3919 17.6678 14.3492 17.667 14.3109 17.682C12.9309 18.189 11.5674 18.7898 10.2219 19.4925L10.2114 19.4963C9.18017 20.0348 8.16017 20.6213 7.14992 21.279V21.2828L7.14617 21.2865C5.36117 22.434 3.60617 23.7615 1.88642 25.2675L1.83392 25.3125L1.82642 25.386C1.62692 28.1715 2.01842 30.957 2.99342 33.7425C3.00392 33.7673 3.01817 33.7913 3.04217 33.8123C3.06617 33.8333 3.08717 33.8438 3.11567 33.8543L7.51667 34.9628L9.19442 33.0998C9.21175 33.0762 9.22587 33.0505 9.23642 33.0233C9.24392 32.9955 9.24392 32.967 9.23642 32.9393L8.84492 31.4295L11.4137 32.9955L13.9937 32.3205L16.4859 31.674L19.5444 31.1918C19.5786 31.186 19.6102 31.17 19.6352 31.146C19.6599 31.1213 19.6772 31.0935 19.6877 31.062L20.6522 27.3255L21.6024 30.423L24.0977 29.808V30.1365L31.0502 30.4928L36.3902 31.5128C36.4007 31.5165 36.4149 31.5165 36.4254 31.5203L38.4669 31.908L39.0444 31.2233L39.3242 34.1453L41.3094 33.9983C41.3199 33.9983 41.3342 33.9945 41.3469 33.9908L43.9749 33.2033L43.2722 28.7438L44.4152 27.8318C44.4438 27.8083 44.4645 27.7766 44.4744 27.741C44.7894 26.514 44.9184 25.2383 44.8622 23.9138L44.8539 23.859ZM44.1414 27.606L44.0402 27.6863L43.2017 28.3613L43.0067 27.1485L42.6219 26.9355L42.9047 28.704V28.719L43.5759 32.9715L41.3784 33.6285L41.2562 33.666L41.1684 33.6735L39.6339 33.786L39.3504 30.864L40.9899 28.9275L41.0049 28.9103C41.0124 28.8998 41.0199 28.893 41.0259 28.8825L40.6937 28.7355L40.5992 28.851L38.3237 31.542L36.7127 31.242L38.3447 28.383C38.3522 28.3658 38.3597 28.3478 38.3619 28.3305V28.3268L38.3829 28.2255L38.8629 25.7055C38.8667 25.698 38.8667 25.6905 38.8704 25.6845C38.8742 25.6695 38.8742 25.6568 38.8742 25.6425L39.9467 20.0048C41.5517 21.0998 43.0712 22.4348 44.5112 24.0135C44.5562 25.2263 44.4414 26.397 44.1662 27.5295L44.1452 27.6195L44.1414 27.606ZM14.2967 18.06L14.4392 18.3045L15.7142 20.4435L13.9104 28.7408C13.9067 28.7655 13.9067 28.7933 13.9142 28.821C13.9216 28.8462 13.9336 28.8698 13.9494 28.8908L13.9809 28.926L16.1237 31.4108L13.9787 31.9658L11.3222 29.7255L11.3259 29.7953C11.3276 29.818 11.3247 29.8408 11.3175 29.8625C11.3103 29.8841 11.2989 29.9041 11.2839 29.9213C11.2524 29.9588 11.2142 29.9813 11.1654 29.9843C11.1427 29.9859 11.1198 29.9831 11.0982 29.9759C11.0766 29.9687 11.0566 29.9572 11.0394 29.9423L11.0567 29.9595L13.5662 32.0745L11.4624 32.6198L8.64242 30.9038L8.54792 30.8438L8.37692 30.7388C8.37317 30.7215 8.36642 30.7035 8.36192 30.6863L8.20142 29.9063L8.19767 29.8988C8.19392 29.8838 8.19392 29.8815 8.19392 29.8815C7.99892 28.914 7.84142 27.9555 7.71842 27.009C7.47692 25.149 7.37567 23.322 7.41842 21.525C8.31692 20.9475 9.22217 20.4173 10.1409 19.9313L10.2669 22.9688L10.6164 22.836L10.4837 19.761C11.7048 19.1255 12.9643 18.5665 14.2547 18.087C14.2697 18.0795 14.2862 18.072 14.3034 18.066L14.2967 18.06ZM2.16467 25.4805C3.76667 24.075 5.39792 22.842 7.05917 21.7553C7.03775 23.5148 7.14051 25.2737 7.36667 27.0188C7.37042 27.0293 7.37042 27.0435 7.37417 27.0563L7.38467 27.1328C7.38842 27.168 7.39217 27.2063 7.39967 27.2453C7.50561 28.0389 7.63492 28.8292 7.78742 29.6153L5.46242 28.4228L5.26742 28.3215L5.28242 28.329C5.29967 28.344 5.31767 28.3605 5.33117 28.3815C5.34174 28.3998 5.34886 28.4199 5.35217 28.4408C5.35967 28.4783 5.35592 28.5173 5.33717 28.5533C5.33342 28.5608 5.32667 28.5683 5.32217 28.5743C5.29442 28.6118 5.25467 28.6343 5.20967 28.644H5.20667C5.16167 28.6515 5.11892 28.6403 5.08067 28.6163L5.06567 28.6058C5.07617 28.6163 5.08667 28.623 5.09717 28.6305L5.32817 28.749L7.87292 30.0563L8.04767 30.8888C8.05142 30.9135 8.06267 30.9338 8.07917 30.9518C8.08967 30.969 8.10692 30.987 8.12792 31.0005L8.40767 31.1685L8.85767 32.937L7.38242 34.572L3.27542 33.537C3.26792 33.5198 3.26042 33.4995 3.25817 33.4815C2.34617 30.8145 1.97867 28.149 2.15717 25.4813L2.16467 25.4805ZM19.2272 22.9155L19.0592 23.4293L20.4294 26.7668L19.3667 30.8693L19.3142 30.8768L16.5077 31.3208L14.2712 28.7273L14.2959 28.6148L16.0712 20.4435L16.6832 17.6475L20.4962 17.025L23.8832 24.1095L24.0159 26.451L24.0309 26.664L24.0909 27.7125V29.4525L21.8409 30.0075L21.0197 27.309L21.0159 27.3015L20.9844 27.2115L20.7894 26.6865L20.7857 26.6828L20.7819 26.6723L19.2272 22.9155ZM24.3827 20.172L24.3377 19.857L24.3339 19.8293L24.4014 16.6313C27.4667 16.8203 30.5289 17.271 33.5889 17.9813L33.9339 18.0825C35.7969 18.7125 37.6599 19.4625 39.5229 20.3325L38.0229 28.2173L37.9494 28.3433L36.3414 31.1558L31.3667 30.21L33.2507 27.8123C33.2717 27.7845 33.2822 27.7523 33.2859 27.7178L33.3032 27.4628L33.3182 27.2498L33.5207 24.2408C33.5241 24.2158 33.5205 24.1903 33.5102 24.1673C33.4997 24.1425 33.4892 24.1253 33.4727 24.1073L33.4622 24.0923L32.5569 23.1518L33.6332 20.8838L33.4307 20.835H33.4269L32.4032 22.9913L32.2382 23.3235L33.1667 24.3L32.9432 27.606L32.9394 27.6435L32.8067 27.8145L30.9692 30.153L24.4404 29.8178V27.7178L24.4367 27.6128L24.2417 24.2603L29.0927 24.3263L28.7289 23.9738L26.2367 23.9385L24.7794 23.0333L24.3842 20.1848" fill="black"/>
<path d="M40.9892 28.92L40.7972 29.1473L41.1677 33.6668L41.2554 33.6593L41.3777 33.6218L40.9899 28.9208" fill="white"/>
<path d="M41.1669 33.666L40.7964 29.1465L39.3489 30.8565L39.6324 33.7785L41.1669 33.666Z" fill="#543E3C"/>
<path d="M40.597 28.8428L38.3184 28.413L36.7104 31.2255L38.3215 31.5255L39.031 30.6833L39.0347 30.6795L40.597 28.8345M43.0045 27.141L43.1994 28.3538L44.0379 27.6788L43.003 27.1335" fill="#76747A"/>
<path d="M44.0394 27.6863L44.1407 27.606L44.1617 27.516L42.8417 26.811L42.5762 26.6783L42.6212 26.9295L43.0059 27.1425L44.0409 27.6878M38.3597 28.3155C38.3559 28.3328 38.3492 28.3508 38.3424 28.368L38.3177 28.413L40.5962 28.8428L40.6907 28.7273L40.6869 28.647L38.3799 28.2098L38.3589 28.311V28.3148" fill="white"/>
<path d="M42.8897 25.215V24.7987L40.4717 23.175L40.6922 28.7287L41.0244 28.8757L41.0454 28.7812L40.8504 23.85L42.8919 25.2165" fill="#543E3C"/>
<path d="M42.8897 24.7988V25.215L40.8482 23.8485L41.0432 28.773L41.0222 28.8743C41.0147 28.8848 41.0072 28.8915 41.0012 28.902L40.9862 28.9193L41.3739 33.6203L43.5714 32.9633L42.9002 28.6883L42.6174 26.9198L42.5724 26.6685L42.8379 26.8013L44.1579 27.5063C44.4339 26.3813 44.5494 25.2038 44.5029 23.9903C43.0629 22.4108 41.5427 21.075 39.9384 19.9815L39.8897 20.244L39.8859 20.259L38.8659 25.6215C38.8659 25.6365 38.8659 25.6493 38.8622 25.6635C38.8584 25.671 38.8584 25.6785 38.8547 25.6845L38.3747 28.2045L40.6817 28.6418L40.4642 23.1683L42.8829 24.7935" fill="#9DDFF9"/>
<path d="M14.4392 18.3053L14.2967 18.0608L14.2479 18.0818C14.0274 20.8193 14.0589 23.7195 14.3379 26.7878L14.4879 26.0888C14.2704 23.3588 14.2539 20.766 14.4392 18.3053Z" fill="#D8F5FC"/>
<path d="M15.7157 20.445L14.4407 18.306C14.2554 20.766 14.2727 23.361 14.4894 26.0895L15.7157 20.445Z" fill="#543E3C"/>
<path d="M16.1245 31.4115L13.9817 28.9275L11.437 29.826L13.978 31.9687L16.123 31.4137" fill="#76747A"/>
<path d="M8.37544 30.741L8.54644 30.846L11.0559 29.961L11.0387 29.9437C11.0139 29.9227 10.9967 29.8987 10.9862 29.8702L10.9757 29.8282V29.8245L10.9719 29.7645L8.36194 30.687C8.36569 30.7042 8.37244 30.7222 8.37694 30.7395" fill="white"/>
<path d="M8.6447 30.9052L11.4617 32.6212L13.5654 32.076L11.0559 29.961L8.54645 30.846L8.64095 30.906L8.6447 30.9052Z" fill="#76747A"/>
<path d="M10.9727 25.6275L10.6299 25.7603L10.9727 29.7653L10.9764 29.8253V29.829L10.9869 29.871C10.9974 29.8988 11.0147 29.9235 11.0394 29.9445C11.0566 29.9595 11.0766 29.9709 11.0982 29.9781C11.1199 29.9853 11.1427 29.9882 11.1654 29.9865C11.2142 29.9828 11.2524 29.9618 11.2839 29.9235C11.2989 29.9063 11.3103 29.8863 11.3176 29.8647C11.3248 29.8431 11.3276 29.8202 11.3259 29.7975L11.3222 29.7278L11.3147 29.6438L10.9719 25.6283" fill="#543E3C"/>
<path d="M13.9157 28.8225C13.9082 28.7948 13.9082 28.767 13.9119 28.7423L13.9157 28.725L11.3154 29.6445L11.3229 29.7285L11.4384 29.826L13.9832 28.9275L13.9517 28.8923C13.9367 28.875 13.9269 28.8548 13.9202 28.836" fill="white"/>
<path d="M10.6089 22.8375L10.2594 22.9702L10.1334 19.9327L7.41095 21.5265C7.3757 23.3227 7.47844 25.1512 7.71094 27.0105L8.18644 29.883C8.19019 29.8935 8.19019 29.898 8.19019 29.9002L8.19394 29.9077L8.35444 30.6877L10.9644 29.7652L10.6217 25.7602L10.9644 25.6275L11.3072 29.643L13.9074 28.7235L14.3304 26.787C14.0507 23.718 14.0192 20.817 14.2404 18.081C12.95 18.5605 11.6906 19.1195 10.4694 19.755L10.6022 22.83" fill="#9DDFF9"/>
<path d="M7.39667 27.2452C7.38917 27.2077 7.38617 27.1687 7.38167 27.1327L7.37117 27.0562C7.36742 27.0412 7.36742 27.0285 7.36367 27.0187L5.24567 28.3087L5.26292 28.3237L5.45792 28.425L7.39442 27.2475" fill="white"/>
<path d="M7.78519 29.6152L7.39744 27.2452L5.46094 28.4227L7.78594 29.6152" fill="#76747A"/>
<path d="M7.05921 21.7553C5.39871 22.8428 3.75921 24.0833 2.16621 25.4813C1.98771 28.1483 2.35521 30.8138 3.26721 33.4815L5.62671 31.884L5.09871 28.629C5.08821 28.6215 5.07771 28.614 5.06721 28.6043L3.25971 27.3495L5.29371 26.0175L5.33121 26.4023L3.88371 27.36L5.24646 28.3073L7.36446 27.0173C7.13721 25.2345 7.03221 23.4803 7.06446 21.7538" fill="#9DDFF9"/>
<path d="M5.32819 28.3815C5.31319 28.3605 5.29669 28.344 5.27944 28.329L5.26444 28.3215L5.24719 28.3065L3.88444 27.3593L5.33194 26.4015L5.29444 26.0168L3.26044 27.3488L5.08144 28.614C5.11894 28.6388 5.16169 28.6493 5.20744 28.6418H5.21119C5.25619 28.6313 5.29519 28.6103 5.32369 28.572C5.32744 28.5645 5.33419 28.557 5.33869 28.551C5.35594 28.5158 5.35969 28.4775 5.35369 28.4385C5.35038 28.4176 5.34326 28.3976 5.33269 28.3793" fill="#543E3C"/>
<path d="M5.32819 28.7475L5.09719 28.629L5.62519 31.884L3.26569 33.4815C3.26944 33.4987 3.27619 33.519 3.28294 33.537L3.48244 33.5895L5.79619 32.0205C5.81344 32.01 5.82394 31.9927 5.83369 31.9755C5.84119 31.9477 5.84419 31.9335 5.84119 31.9155L5.83069 31.8525L5.32819 28.749" fill="white"/>
<path d="M8.04695 30.8872L7.8722 30.0547L5.32745 28.7475L5.82995 31.851L8.8637 32.9347L8.4137 31.1662L8.13395 30.9982C8.11295 30.9832 8.09645 30.9667 8.0852 30.9495C8.06795 30.9322 8.05745 30.912 8.0537 30.8865" fill="#543E3C"/>
<path d="M7.38919 34.5712L8.86444 32.9362L5.75419 32.0475L3.48169 33.5887L7.38169 34.5637" fill="#76747A"/>
<path d="M5.83146 31.8525L5.84196 31.9155C5.84571 31.9328 5.84196 31.947 5.83821 31.9643C5.82321 31.992 5.81346 32.0093 5.79621 32.0205L5.75421 32.0483L8.86446 32.9363L5.83146 31.8525Z" fill="#93CAE0"/>
<path d="M24.0302 26.6655L24.0152 26.4525L20.9747 27.2145L21.0024 27.2948L21.0099 27.312L21.0414 27.4133L24.0294 26.6655" fill="white"/>
<path d="M24.0894 27.714L24.0294 26.6655L21.0414 27.4132L21.8312 30.0097L24.0812 29.4547V27.7147" fill="#76747A"/>
<path d="M18.8957 23.0378H18.8995L18.892 23.0205C18.892 23.0243 18.892 23.031 18.8957 23.0378Z" fill="black"/>
<path d="M17.9342 27.8363L17.9589 27.8213L17.9439 27.7965L17.9334 27.834" fill="#9DDFF9"/>
<path d="M19.0592 23.43L18.9167 23.1038L17.7422 27.7238L14.2892 28.6148L14.2645 28.7273V28.731L14.3417 28.818L17.854 27.909C17.8615 27.9053 17.869 27.9053 17.875 27.9015C17.881 27.8978 17.8922 27.8865 17.8997 27.8805C17.9134 27.8684 17.9231 27.8525 17.9275 27.8348L17.938 27.7973L19.0532 23.4285" fill="white"/>
<path d="M17.959 27.822L17.9342 27.837C17.9305 27.8542 17.9192 27.8685 17.9065 27.882C17.899 27.8895 17.8915 27.897 17.8817 27.903C17.872 27.909 17.8667 27.9067 17.8607 27.9105L17.7805 27.9315L19.315 30.8775L19.3675 30.87L17.959 27.822Z" fill="#93CAE0"/>
<path d="M17.9454 27.798L17.9604 27.8227L19.3667 30.87L20.4294 26.7675L19.0592 23.43L17.9439 27.7987" fill="#543E3C"/>
<path d="M17.7812 27.93L14.3417 28.8187L16.5017 31.3215L19.3082 30.8775L17.7737 27.93" fill="#76747A"/>
<path d="M21.3992 21.549L21.2732 21.2205L18.481 21.7695L18.8935 23.0205L18.901 23.0377H18.8972L18.925 23.1037L19.0615 23.4285L19.2265 22.9035L18.9362 22.026L21.4 21.54" fill="#543E3C"/>
<path d="M21.2717 21.2205L21.3977 21.549L18.9339 22.035L19.2242 22.9125L20.7797 26.6977L20.9747 27.2227L24.0167 26.4525L23.8839 24.111L20.4969 17.0265L16.6839 17.649L16.0719 20.4517L14.2967 28.6162L17.7497 27.7252L18.9167 23.1037L18.8957 23.0482C18.8852 23.031 18.8852 23.0235 18.8852 23.0205L18.4727 21.7695L21.2649 21.2205" fill="#9DDFF9"/>
<path d="M37.9517 28.3425L38.0252 28.2165L38.0402 28.143L33.3182 27.2483L33.3032 27.4613L37.9517 28.3425Z" fill="white"/>
<path d="M36.3437 31.1565L37.9517 28.344L33.3032 27.4635L33.286 27.7185C33.2822 27.7538 33.2709 27.786 33.2507 27.813L31.3667 30.21L36.3437 31.1565Z" fill="#76747A"/>
<path d="M32.9395 27.6375L32.9432 27.6H24.4367L24.4405 27.6945V27.81H32.8067L32.9395 27.639" fill="white"/>
<path d="M30.9677 30.1462L32.8052 27.8077H24.439V29.8102L30.9677 30.1462Z" fill="#76747A"/>
<path d="M29.1782 19.899V20.1367L29.7129 20.193L33.4254 20.8327C33.4082 20.805 33.4007 20.7727 33.4044 20.7427L33.4149 20.6205L29.3949 19.9282L29.1774 19.9005" fill="white"/>
<path d="M29.7167 20.1922H29.7129L29.1782 20.136L32.2367 23.3235L32.4017 22.9912L29.7167 20.1922Z" fill="#543E3C"/>
<path d="M24.778 23.0198L26.2367 23.925L28.729 23.9603L24.3842 20.1713L24.7795 23.0198" fill="#76747A"/>
<path d="M29.1782 20.1375V19.8998L29.3957 19.9275L33.4157 20.6198L33.5905 17.9813C30.529 17.2718 27.4667 16.821 24.403 16.6313L24.3355 19.8293L24.3392 19.857L29.0957 24.0023L29.092 24.3135L24.241 24.246L24.436 27.5985H32.9417L33.1667 24.3L29.179 20.145" fill="#9DDFF9"/>
<path d="M24.3377 19.857L24.3827 20.172L28.7275 23.961L29.0912 24.3135L29.095 24.0022L24.3377 19.857Z" fill="white"/>
<path d="M36.1892 22.0125V22.3875L38.9267 23.4848L39.0017 23.1353L36.199 22.02M36.0617 24.747V25.122L38.5015 25.7685L38.5675 25.4235L36.0625 24.7485" fill="#543E3C"/>
<path d="M33.4592 24.093L33.4697 24.108C33.4869 24.1252 33.4974 24.1432 33.5072 24.168C33.5175 24.191 33.5211 24.2165 33.5177 24.2415L33.3152 27.2505L38.0372 28.1452L38.4917 25.755L36.0519 25.1085V24.741L38.5569 25.416L38.9244 23.487L36.1869 22.3897V22.0222L38.9897 23.1375L39.5207 20.3415C37.6577 19.4715 35.7947 18.72 33.9317 18.0915L33.6729 20.9085L33.4554 24.1035" fill="#9DDFF9"/>
<path d="M33.4247 20.835V20.8312L29.7167 20.1915L32.4017 22.9912L33.4247 20.835Z" fill="#76747A"/>
<path d="M33.9355 18.0825L33.5905 17.9813L33.4157 20.6198L33.4052 20.742C33.4015 20.7735 33.409 20.805 33.4262 20.832V20.8358H33.43L33.6325 20.8845L32.5562 23.1525L33.4615 24.093L33.679 20.898L33.9377 18.081" fill="#543E3C"/>
<path d="M29.713 20.1923H29.7167" stroke="#FF0000" stroke-width="0.005" stroke-miterlimit="10" stroke-linecap="square"/>
<path d="M25.6907 17.0775L24.7434 17.004L24.6872 19.6987L25.3059 20.2372L27.0782 17.2177L25.6907 17.0775ZM22.6292 22.2997L20.7032 25.5885L21.0984 26.55C21.1022 26.5575 21.1022 26.565 21.1059 26.571L21.1929 26.7982L21.5079 26.721L23.2907 23.6805L22.6307 22.3005M28.5002 23.0235L29.1954 23.628C29.2479 23.6452 29.2967 23.673 29.3454 23.718C29.3748 23.7465 29.3996 23.7794 29.4189 23.8155C29.4752 23.8757 29.5087 23.9537 29.5134 24.036C29.5224 24.1189 29.4981 24.202 29.4459 24.267V24.3157C29.4422 24.4102 29.4084 24.4942 29.3409 24.5632C29.3079 24.596 29.2685 24.6215 29.2251 24.6383C29.1817 24.6551 29.1354 24.6627 29.0889 24.6607L27.5544 24.6397L26.0244 27.2467H28.9644L31.4529 23.004L29.6282 21.1027L28.5062 23.0212M33.2297 18.2565L31.5137 17.8927L30.4262 19.7482L33.0962 20.2095V20.199L33.2289 18.249M3.58367 24.7395L2.50367 25.6485L2.47217 26.6385L3.58367 24.741M16.4177 20.4975C16.4139 20.508 16.4139 20.5147 16.4139 20.5252L15.5124 24.6637L19.7102 17.5087L16.9727 17.9565L16.4177 20.4975ZM13.6187 28.4587L13.9937 26.7667L13.7702 22.6417L11.4167 26.655L11.6297 29.1645L13.6247 28.4595M8.53667 29.8147L8.53292 29.7975C8.52542 29.7825 8.52542 29.7765 8.52242 29.7697L8.53667 29.8147ZM10.4904 28.221L9.49817 29.9122L10.6029 29.5245L10.4904 28.221ZM3.20042 32.079L3.45167 32.925L5.25167 31.7085L4.85642 29.256L3.20642 32.073M5.86892 27.522L6.99092 26.8372L6.87842 25.7992L5.86892 27.522ZM31.1912 27.249H32.6162L32.7977 24.5055L31.1897 27.249M41.4167 23.3902L42.1404 22.1565C41.5138 21.5981 40.8581 21.0731 40.1762 20.5837L39.2042 25.755C39.1967 25.77 39.1967 25.776 39.1937 25.7865L38.7984 27.8662L40.2107 25.4662L40.1207 23.1937C40.1169 23.1037 40.1417 23.0227 40.2009 22.956C40.2564 22.8889 40.3351 22.8452 40.4214 22.8337C40.4638 22.8262 40.5073 22.8272 40.5493 22.8368C40.5913 22.8463 40.6309 22.8641 40.6659 22.8892L41.4159 23.3962" fill="#8EBED3"/>
<path d="M43.3194 23.2612L42.7284 24.2677L43.0847 24.5077C43.1234 24.532 43.1565 24.5642 43.1819 24.6022C43.2072 24.6402 43.2242 24.6832 43.2317 24.7282C43.2489 24.8227 43.2317 24.9135 43.1792 24.9937L42.9842 25.284C42.9599 25.3227 42.9278 25.3558 42.8897 25.3812C42.8517 25.4065 42.8088 25.4235 42.7637 25.431C42.6692 25.4482 42.5784 25.431 42.4982 25.3785L42.1982 25.1722L41.3132 26.682L41.3447 29.007L41.6874 33.162L43.1874 32.7142L42.5649 28.7617C42.5612 28.7467 42.5612 28.734 42.5612 28.7197L42.2814 26.9827C42.2574 26.8517 42.2468 26.7185 42.2499 26.5852C42.2506 26.5345 42.2651 26.485 42.2919 26.442C42.318 26.4067 42.3529 26.379 42.3932 26.3617C42.4352 26.337 42.4809 26.3265 42.5259 26.3302C42.5507 26.3302 42.5889 26.3377 42.6414 26.3512C42.7112 26.3662 42.8334 26.4142 43.0119 26.4982L43.1064 26.5507C43.1274 26.5582 43.1484 26.568 43.1694 26.586L43.9194 26.991C44.1092 26.0539 44.19 25.0981 44.1602 24.1425L43.3179 23.262M33.9032 22.611L33.8087 23.9985L33.6797 26.9655L37.7522 27.738L38.0807 26.013L35.9207 25.422C35.8762 25.412 35.8343 25.3925 35.798 25.3648C35.7618 25.3371 35.732 25.3019 35.7107 25.2615C35.6645 25.1811 35.6518 25.0857 35.6754 24.996L35.6829 24.657C35.6934 24.6123 35.7131 24.5702 35.7407 24.5335C35.7684 24.4969 35.8033 24.4664 35.8434 24.444C35.9237 24.3952 36.0144 24.384 36.1089 24.4087L38.2794 24.9817L38.5194 23.7067L36.0482 22.7145C36.0032 22.6972 35.9582 22.6267 35.8982 22.5045C35.8382 22.3822 35.8322 22.305 35.8494 22.26L35.8667 21.9352C35.8833 21.8925 35.9082 21.8536 35.94 21.8206C35.9718 21.7876 36.0099 21.7613 36.0519 21.7432C36.114 21.7233 36.1787 21.7127 36.2439 21.7117C36.3082 21.708 36.3725 21.7175 36.4329 21.7395L38.7152 22.6545L39.1127 20.5432L35.9079 19.1835L33.8949 22.6185M13.8392 18.9375L13.8602 18.6022C12.8301 19.0051 11.821 19.46 10.8369 19.965L10.9592 22.824C10.9617 22.8699 10.9551 22.9158 10.9396 22.9591C10.9242 23.0023 10.9002 23.0421 10.8692 23.076C10.8039 23.1495 10.7192 23.184 10.6247 23.1885L10.2752 23.286C10.1777 23.2897 10.0937 23.2612 10.0277 23.196C9.99264 23.166 9.96425 23.1291 9.94436 23.0875C9.92446 23.0459 9.91351 23.0006 9.91219 22.9545L9.82219 20.7795L7.81219 24.2115L8.06719 26.9655L8.28019 28.4205L13.8392 18.9375Z" fill="#8EBED3"/>
<path d="M22.3944 36.8295L23.2044 39.5243L23.7984 38.6258L25.1649 40.3883L25.2099 38.952L27.1044 40.0245L27.0594 38.9408L29.8719 40.1153L28.0997 37.8818L29.6132 37.3268L28.0719 36.3413L29.2532 35.415L27.3309 35.394L27.7809 34.4295L24.7119 34.5585L22.3914 36.831" fill="#FDF155"/>
<path d="M22.3944 36.8295L24.7149 34.557L27.7839 34.428L27.3339 35.3925L29.2562 35.4135L28.0749 36.3398L29.6162 37.3253L28.1027 37.8803L29.8749 40.1138L27.0624 38.9393L27.1074 40.023L25.2129 38.9505L25.1679 40.3868L23.8014 38.6243L23.2074 39.5228L22.3944 36.8295Z" stroke="#FF9900" stroke-width="0.279" stroke-miterlimit="10"/>
<path d="M19.0292 30.7965C18.802 31.3035 18.823 31.7962 19.0952 32.274C19.3675 32.7517 19.8115 33.081 20.4227 33.2565C21.0415 33.4275 21.6497 33.399 22.2475 33.1665C22.8452 32.934 23.2577 32.565 23.488 32.0617C23.7182 31.5585 23.698 31.062 23.425 30.5842C23.152 30.1065 22.7087 29.7765 22.093 29.6092C21.4772 29.442 20.8735 29.4622 20.2757 29.697C19.678 29.9317 19.2632 30.297 19.0277 30.8047" fill="#9DDFF9"/>
<path d="M19.0952 32.2748C19.3682 32.7533 19.8114 33.0817 20.4227 33.2572C21.0414 33.4282 21.6497 33.3998 22.2474 33.1673C22.8452 32.9348 23.2577 32.5658 23.4879 32.0625C23.7182 31.5593 23.6979 31.0627 23.4249 30.585C23.1519 30.1072 22.7087 29.7772 22.0929 29.61C21.4772 29.4427 20.8734 29.463 20.2757 29.6978C19.6779 29.9325 19.2632 30.2978 19.0277 30.8055C18.8004 31.3125 18.8214 31.8052 19.0937 32.283L19.0952 32.2748Z" stroke="black" stroke-width="0.466" stroke-miterlimit="10" stroke-linejoin="round"/>
<path d="M19.7732 31.0695C19.6901 31.241 19.6511 31.4305 19.6596 31.6209C19.6681 31.8113 19.7239 31.9966 19.8219 32.16C20.0214 32.5125 20.3499 32.7577 20.8007 32.8875C21.2507 33.0135 21.7059 32.9887 22.1462 32.8177C22.5864 32.6467 22.8909 32.3775 23.0612 32.0032C23.2314 31.629 23.2112 31.266 23.0162 30.9127C22.8212 30.5595 22.4882 30.3187 22.0337 30.189C21.5918 30.0589 21.119 30.0811 20.6912 30.252C20.2509 30.423 19.9434 30.696 19.7717 31.077" fill="#89A9B9"/>
<path d="M21.1855 30.318C21.2305 30.3982 21.301 30.4507 21.403 30.483C21.5023 30.5108 21.6081 30.5047 21.7037 30.4657C21.7487 30.4512 21.7902 30.4276 21.8257 30.3964C21.8612 30.3652 21.8898 30.327 21.91 30.2842C21.9289 30.2465 21.9378 30.2046 21.936 30.1625C21.9341 30.1204 21.9216 30.0794 21.8995 30.0435C21.8545 29.9632 21.781 29.9107 21.679 29.8785C21.577 29.8462 21.4795 29.8537 21.382 29.8935C21.2845 29.9332 21.214 29.9947 21.1757 30.0787C21.1567 30.1165 21.1476 30.1586 21.1495 30.2009C21.1513 30.2431 21.164 30.2842 21.1862 30.3202" fill="#9DDFF9"/>
<path d="M26.8854 32.562C25.7979 32.265 24.7607 32.202 23.7714 32.373C24.5019 32.9115 25.2264 33.5333 25.9419 34.2405L26.8854 32.562Z" fill="#F26D7D"/>
<path d="M24.6527 36.399C25.3052 35.868 25.7364 35.148 25.9427 34.239C25.2264 33.534 24.5027 32.9115 23.7722 32.3715C21.4517 30.6615 19.0644 29.7915 16.6074 29.7645C16.8662 32.3475 18.6024 34.839 21.8184 37.2442C22.9749 37.2757 23.9184 36.9967 24.6534 36.3982" fill="white"/>
<path d="M25.8302 34.2225L26.5352 32.9678C25.7252 32.7473 24.9482 32.7023 24.2102 32.8283C24.7817 33.2546 25.3225 33.7205 25.8287 34.2225" fill="#C25E69"/>
<path d="M16.4072 29.5837L16.4349 29.7832C16.6899 32.4082 18.4479 34.9417 21.7127 37.3852L21.7577 37.4205H21.8139C23.0162 37.4557 23.9987 37.1617 24.7637 36.5355C25.4387 35.9865 25.8857 35.2425 26.1062 34.3057L27.1509 32.4502L26.9304 32.394C25.8429 32.097 24.8057 32.0302 23.8127 32.1877C21.4779 30.4822 19.0764 29.6152 16.6089 29.5912L16.4072 29.5837ZM24.1172 32.5012C24.9174 32.4037 25.7522 32.4592 26.6222 32.6722L25.8647 34.0177C25.3111 33.4796 24.7276 32.9738 24.1172 32.5012ZM23.6694 32.5162L23.7294 32.5582L24.5094 33.1522C25.0794 33.6022 25.5017 33.9562 25.7709 34.2172C25.5714 35.0767 25.1634 35.7585 24.5439 36.2617C23.8487 36.8212 22.9614 37.0897 21.8769 37.0717C18.8222 34.7752 17.1309 32.3992 16.8054 29.9415C19.1544 30.015 21.4434 30.8745 23.6694 32.514" fill="black"/>
<path d="M24.1247 36.2977C24.6384 35.8815 24.9737 35.3227 25.1372 34.599C24.6045 34.0696 24.0345 33.5791 23.4317 33.1312C21.6039 31.7857 19.7267 31.104 17.7939 31.0837C18.0002 33.1147 19.3667 35.0752 21.8934 36.966C22.8024 36.9907 23.5464 36.771 24.1232 36.291" fill="#CBC4C4"/>
<path d="M24.5792 35.9865C25.6592 35.976 26.4422 35.8365 26.9207 35.5665C25.9104 34.5562 24.4427 33.8715 22.5167 33.504C22.6914 34.053 23.3792 34.8765 24.5792 35.9865Z" fill="#F26D7D"/>
<path d="M24.3969 35.97C25.3089 35.97 25.9764 35.865 26.3964 35.655C25.6029 34.851 24.4014 34.2953 22.7964 33.9915C22.9164 34.428 23.4489 35.0865 24.3969 35.97Z" fill="#C25E69"/>
<path d="M22.2722 33.282L22.405 33.5745C22.675 34.179 23.3425 34.9792 24.4045 35.9685L24.583 36.1605C25.7005 36.15 26.509 36.0105 27.0085 35.7202L27.2185 35.6077L27.0475 35.4427C26.0162 34.4077 24.52 33.7057 22.5527 33.3315L22.2722 33.282ZM24.5792 35.8125H24.5477C23.5975 34.9275 22.9892 34.233 22.7267 33.726C24.3842 34.071 25.6802 34.6695 26.617 35.5185C26.149 35.7037 25.471 35.802 24.5792 35.8125Z" fill="black"/>
<path d="M20.4512 37.4895C20.8464 37.1857 21.2087 36.675 21.5387 35.952L19.4732 34.2397C19.3337 35.3647 19.6584 36.4485 20.4519 37.4902" fill="#F26D7D"/>
<path d="M21.577 35.8613L19.8917 34.554C19.8047 35.514 20.0867 36.4095 20.7445 37.239C21.0445 36.9563 21.328 36.498 21.577 35.862" fill="#C25E69"/>
<path d="M19.3472 33.9975L19.3052 34.2075C19.1552 35.385 19.4904 36.5145 20.3117 37.5975L20.4204 37.74L20.5599 37.6275C20.9762 37.3095 21.3639 36.7575 21.7239 35.97L19.3472 33.9975ZM21.3572 35.934C21.0872 36.5115 20.7947 36.9442 20.4834 37.2345C19.8534 36.354 19.5684 35.442 19.6239 34.5015L21.3572 35.934Z" fill="black"/>
<path d="M33.8552 33.8513C33.5627 33.9488 33.3062 34.1415 33.0902 34.4318C32.8742 34.722 32.7617 35.019 32.7512 35.3265C32.7407 35.634 32.8352 35.8613 33.0347 36.0113C33.2342 36.1613 33.4787 36.1898 33.7697 36.0915C34.0607 35.9933 34.3187 35.8013 34.5347 35.511C34.7507 35.2208 34.8632 34.9238 34.8737 34.6163C34.8842 34.3088 34.7935 34.0778 34.594 33.9278C34.3945 33.7778 34.147 33.753 33.8567 33.8513" fill="#C6996D"/>
<path d="M34.4567 34.2323C34.3097 34.1235 34.1282 34.1033 33.9152 34.176C33.6871 34.2567 33.4894 34.4057 33.3489 34.6028C33.1989 34.8158 33.1074 35.0363 33.1014 35.2628C33.0954 35.4893 33.1615 35.658 33.3115 35.7653C33.454 35.8778 33.6362 35.898 33.8499 35.8253C34.0781 35.7446 34.2758 35.5956 34.4162 35.3985C34.5662 35.1855 34.6562 34.965 34.6637 34.7385C34.6712 34.512 34.6037 34.3433 34.4575 34.2315" fill="#8F6C5E"/>
<path d="M15.0797 37.395C15.4749 37.3635 15.8837 37.458 16.3134 37.6778C16.7432 37.8975 17.0612 38.1773 17.2674 38.5163C17.4737 38.8553 17.5074 39.156 17.3724 39.4178C17.2374 39.6795 16.9749 39.8265 16.5789 39.858C16.1829 39.8895 15.7719 39.7905 15.3414 39.5715C14.9109 39.3525 14.5967 39.075 14.3904 38.736C14.1842 38.397 14.1459 38.0963 14.2779 37.8345C14.4099 37.5728 14.6799 37.4258 15.0782 37.3943" fill="#C6996D"/>
<path d="M15.2042 37.6748C14.8862 37.6995 14.6694 37.8143 14.5614 38.0243C14.4534 38.2343 14.4842 38.4787 14.6514 38.7517C14.8187 39.0247 15.0714 39.2482 15.4134 39.423C15.7554 39.5977 16.0884 39.675 16.4057 39.6503C16.7229 39.6255 16.9367 39.5077 17.0454 39.2977C17.1542 39.0877 17.1227 38.8478 16.9584 38.5778C16.7934 38.3018 16.5384 38.0782 16.1934 37.9027C15.8484 37.7272 15.5184 37.6508 15.2034 37.6755" fill="#8F6C5E"/>
<path d="M32.1467 41.436L31.6329 40.608L30.7419 40.7685L31.2557 41.5965L32.1467 41.436Z" fill="#FDF155"/>
<path d="M31.6322 40.6072L30.7412 40.7677L31.255 41.5957L32.146 41.4352L31.6322 40.6072Z" stroke="#FF9900" stroke-width="0.279" stroke-miterlimit="10"/>
<path d="M34.0517 42.1485L34.5017 41.751L34.1867 41.223L33.7367 41.6205L34.0517 42.1485Z" fill="#FDF155"/>
<path d="M34.5017 41.7503L34.1867 41.2223L33.7367 41.6198L34.0517 42.1478L34.5017 41.7503Z" stroke="#FF9900" stroke-width="0.279" stroke-miterlimit="10"/>
<path d="M36.403 41.8125L36.7735 41.6377L36.487 41.4172L36.1165 41.592L36.403 41.8125Z" fill="#FDF155"/>
<path d="M36.7742 41.6385L36.4877 41.418L36.1172 41.5928L36.4037 41.8132L36.7742 41.6385Z" stroke="#FF9900" stroke-width="0.279" stroke-miterlimit="10"/>
<path d="M31.7642 35.7285C31.5437 35.7563 31.3307 35.8613 31.1319 36.0398C30.9332 36.2183 30.7997 36.417 30.7404 36.6375C30.6812 36.858 30.7127 37.0328 30.8304 37.1655C30.9482 37.2983 31.1207 37.3508 31.3554 37.3193C31.5759 37.2878 31.7889 37.1828 31.9914 37.0043C32.1939 36.8258 32.3199 36.627 32.3792 36.4103C32.4384 36.1935 32.4069 36.015 32.2892 35.8793C32.1714 35.7435 31.9989 35.697 31.7642 35.7285Z" fill="#C6996D"/>
<path d="M32.1917 36C32.0904 35.8875 31.9502 35.8463 31.7642 35.871C31.5655 35.9053 31.3811 35.9965 31.2332 36.1335C31.0811 36.2637 30.9695 36.4347 30.9114 36.6263C30.8627 36.8115 30.8867 36.9585 30.9879 37.0703C31.0892 37.182 31.2294 37.2203 31.4154 37.1925C31.6014 37.1648 31.7754 37.0838 31.9434 36.9338C32.1114 36.7838 32.2194 36.6225 32.2659 36.4373C32.3147 36.2588 32.2899 36.1125 32.1917 36Z" fill="#8F6C5E"/>
</g>
<defs>
<clipPath id="clip0_17_2296">
<rect width="48" height="48" fill="white" transform="translate(0.166687)"/>
</clipPath>
</defs>
</svg>
