<svg width="49" height="48" viewBox="0 0 49 48" fill="none" xmlns="http://www.w3.org/2000/svg">
<g opacity="0.75" clip-path="url(#clip0_17_2263)">
<path d="M39.507 16.0132L37.9696 15.4945C37.9696 15.1487 38.1405 14.8029 38.1405 14.4571C39.3362 8.75147 38.4821 4.08319 35.9198 2.5271C33.3575 1.14391 29.2579 2.5271 25.1583 6.15798C24.8166 6.50378 24.3042 6.84958 23.9625 7.19538C23.6209 7.02248 23.4501 6.67668 23.1084 6.50378C19.0088 2.7 14.7383 1.14391 12.176 2.7C9.61377 4.08319 8.93049 8.57857 9.9554 13.9384C10.1262 14.4571 10.1262 14.9758 10.297 15.4945C9.61377 15.6674 9.10131 15.8403 8.58886 16.0132C3.4643 17.7422 0.21875 20.6815 0.21875 23.4479C0.21875 26.3872 3.63512 29.4994 8.93049 31.2283C9.27213 31.4012 9.78459 31.5741 10.297 31.5741C10.1262 32.0928 9.9554 32.7844 9.9554 33.3031C8.93049 38.663 9.78459 42.8126 12.176 44.3687C14.7383 45.9248 19.0088 44.3687 23.2792 40.5649C23.6209 40.2191 23.9625 39.8733 24.3042 39.7004C24.6458 40.0462 25.1583 40.5649 25.6707 40.9107C29.7704 44.5416 33.6992 45.9248 36.2615 44.3687C38.8237 42.8126 39.6778 38.3172 38.6529 32.7844C38.6529 32.4386 38.4821 31.9199 38.3113 31.4012C38.6529 31.2283 38.9945 31.2283 39.1654 31.0554C44.6316 29.1536 48.2188 26.2143 48.2188 23.275C48.0479 20.6815 44.6316 17.9151 39.507 16.0132ZM26.6956 7.88697C30.2828 4.77479 33.5284 3.5645 35.0657 4.42899C36.6031 5.29349 37.2864 9.09726 36.2615 14.1113C36.2615 14.4571 36.0906 14.8029 36.0906 15.1487C34.0408 14.63 31.8202 14.2842 29.7704 14.1113C28.5746 12.3823 27.2081 10.6534 25.6707 8.92437L26.6956 7.88697ZM14.3967 26.0414C14.9091 26.9059 15.2508 27.7704 15.7632 28.6349C16.2757 29.4994 16.7881 30.3638 17.3006 31.0554C15.7632 30.8825 14.3967 30.7096 12.8593 30.3638C13.201 28.9807 13.7134 27.5975 14.3967 26.0414ZM14.3967 21.2002C13.7134 19.817 13.3718 18.4338 12.8593 17.0506C14.2259 16.7048 15.7632 16.5319 17.1298 16.359C16.6173 17.2235 16.1049 17.9151 15.5924 18.7796C15.2508 19.4712 14.7383 20.3357 14.3967 21.2002ZM15.4216 23.6208C16.1049 22.2376 16.7881 21.0273 17.4714 19.6441C18.1547 18.4338 19.0088 17.0506 19.8629 15.8403C21.2294 15.6674 22.7668 15.6674 24.3042 15.6674C25.8415 15.6674 27.2081 15.6674 28.7454 15.8403C29.5995 17.0506 30.2828 18.2609 30.9661 19.6441C31.6494 20.8544 32.3326 22.2376 33.0159 23.6208C32.3326 25.004 31.6494 26.2143 30.9661 27.5975C30.2828 28.8078 29.4287 30.1909 28.7454 31.4012C27.3789 31.5741 25.8415 31.5741 24.3042 31.5741C22.7668 31.5741 21.4002 31.5741 20.0337 31.4012C19.1796 30.1909 18.4963 28.9807 17.6422 27.5975C16.7881 26.2143 16.1049 25.004 15.4216 23.6208ZM32.5034 28.6349C33.0159 27.7704 33.5284 26.9059 33.87 26.0414C34.5533 27.4246 35.0657 28.8078 35.4074 30.3638C33.87 30.7096 32.5034 30.8825 30.9661 31.0554C31.6494 30.1909 32.1618 29.3265 32.5034 28.6349ZM33.87 21.2002C33.3575 20.3357 33.0159 19.4712 32.5034 18.6067C31.991 17.7422 31.4785 17.0506 31.1369 16.1861C32.6743 16.359 34.0408 16.7048 35.5782 16.8777C35.0657 18.4338 34.5533 19.817 33.87 21.2002ZM24.1333 10.3076C25.1583 11.345 26.0123 12.5552 26.8664 13.7655C24.9874 13.5926 23.1084 13.5926 21.2294 13.7655C22.2543 12.5552 23.2792 11.345 24.1333 10.3076ZM13.201 4.42899C14.7383 3.5645 18.3255 4.77479 22.0835 8.23277L22.7668 8.92437C21.2294 10.4805 19.8629 12.2094 18.6671 14.1113C16.4465 14.2842 14.3967 14.63 12.3469 15.1487C12.176 14.63 12.176 14.1113 12.0052 13.5926C10.9803 8.92437 11.6636 5.29349 13.201 4.42899ZM10.8095 29.8452C10.4679 29.6723 9.95541 29.6723 9.61377 29.4994C7.22231 28.6349 5.34331 27.5975 3.97676 26.5601C2.78103 25.5227 2.26857 24.4853 2.26857 23.6208C2.26857 21.8918 4.83085 19.6441 9.27213 18.088C9.78459 17.9151 10.297 17.7422 10.9803 17.5693C11.4928 19.6441 12.176 21.7189 13.201 23.6208C12.176 25.6956 11.4928 27.7704 10.8095 29.8452ZM21.9127 39.3546C20.0337 41.0836 18.1547 42.121 16.6173 42.8126C15.08 43.3313 14.055 43.3313 13.201 42.9855C11.6636 42.121 10.9803 38.663 11.8344 34.1676C12.0052 33.476 12.176 32.9573 12.176 32.2657C14.2259 32.7844 16.4465 33.1302 18.6671 33.1302C19.8629 34.8592 21.2294 36.5882 22.7668 38.3172C22.4252 38.663 22.2543 39.0088 21.9127 39.3546ZM24.1333 36.934C23.1084 35.8966 22.2543 34.6863 21.2294 33.476H26.8664C26.1832 34.6863 25.1583 35.8966 24.1333 36.934ZM36.6031 39.8733C36.2615 41.4294 35.749 42.4668 35.0657 42.8126C33.5284 43.6771 30.2828 42.4668 26.8664 39.5275C26.5248 39.1817 26.0123 38.8359 25.6707 38.4901C27.0373 36.934 28.4038 35.205 29.5995 33.3031C31.8202 33.1302 33.87 32.7844 36.0906 32.2657C36.2615 32.6115 36.2615 33.1302 36.4323 33.476C36.9447 35.8966 36.9447 38.1443 36.6031 39.8733ZM38.3113 29.4994C37.9696 29.4994 37.7988 29.6723 37.4572 29.6723C36.7739 27.5975 35.9198 25.5227 35.0657 23.4479C35.9198 21.546 36.7739 19.4712 37.4572 17.3964C37.9696 17.5693 38.4821 17.7422 38.8237 17.9151C43.265 19.4712 45.9981 21.7189 45.9981 23.4479C45.9981 25.5227 43.0942 27.9433 38.3113 29.4994Z" fill="white"/>
<path d="M23.8381 28C24.7264 28 25.6147 27.8215 26.3254 27.2859C27.0361 26.7504 27.5691 26.0363 27.9244 25.3222C28.2797 24.4296 28.2797 23.537 28.102 22.6444C27.9244 21.7518 27.5691 21.0377 26.8584 20.3236C26.3254 19.6095 25.4371 19.2525 24.5487 19.0739C23.6604 18.8954 22.7721 19.0739 21.8837 19.2525C20.9954 19.6095 20.2847 20.1451 19.9294 20.8592C19.3964 21.5732 19.2188 22.4658 19.2188 23.3585C19.2188 23.894 19.3964 24.6081 19.5741 25.1437C19.7517 25.6792 20.1071 26.2148 20.4624 26.5718C20.8177 26.9289 21.3507 27.2859 21.8837 27.4644C22.5944 27.8215 23.3051 28 23.8381 28Z" fill="white"/>
</g>
<defs>
<clipPath id="clip0_17_2263">
<rect width="48" height="48" fill="white" transform="translate(0.333313)"/>
</clipPath>
</defs>
</svg>
