<svg width="49" height="48" viewBox="0 0 49 48" fill="none" xmlns="http://www.w3.org/2000/svg">
<g opacity="0.75">
<path fill-rule="evenodd" clip-rule="evenodd" d="M24.5001 0C29.1479 0 33.6914 1.40758 37.556 4.04473C41.4205 6.68188 44.4326 10.4302 46.2112 14.8156C47.9899 19.201 48.4553 24.0266 47.5485 28.6822C46.6418 33.3377 44.4036 37.6141 41.1171 40.9706C37.8305 44.327 33.6432 46.6128 29.0847 47.5388C24.5261 48.4649 19.8011 47.9896 15.507 46.1731C11.2129 44.3566 7.54274 41.2805 4.96052 37.3337C2.37831 33.3869 1.00006 28.7467 1.00006 24C1.00006 17.6348 3.47595 11.5303 7.88305 7.02944C12.2902 2.52856 18.2675 0 24.5001 0Z" fill="white"/>
<path d="M38.8279 9.52833C37.8301 5.17783 31.3412 3.75333 25.2001 6.17183C21.3541 7.60884 17.8008 9.87517 14.7436 12.8411C11.3614 16.3586 10.8216 19.4211 11.0435 20.7003C11.8304 25.2153 17.3908 28.1658 19.6775 30.3551V30.3673C19.0039 30.7366 14.0684 33.5173 12.9101 36.3524C11.6919 39.3484 13.1036 41.4974 14.0401 41.7861C15.446 42.1625 16.9226 42.04 18.2628 41.4358C19.6029 40.8317 20.7393 39.7761 21.5126 38.4174C22.1517 37.3165 22.5515 36.0653 22.6804 34.7628C22.8094 33.4604 22.6639 32.1424 22.2555 30.9133C23.3569 30.6021 24.5019 30.5291 25.6282 30.6981C29.4935 31.2003 30.2521 33.8831 30.1073 35.0066C30.0392 35.4065 29.8944 35.7854 29.6829 36.1176C29.4713 36.4498 29.1979 36.7274 28.8813 36.9316C28.6106 37.1189 28.5272 37.1819 28.5508 37.3219C28.5838 37.5231 28.7082 37.5161 28.9395 37.4724C29.5204 37.2689 30.0322 36.8746 30.4075 36.3414C30.7829 35.8081 31.0041 35.1609 31.0421 34.4851C31.135 31.8601 28.8671 28.9096 24.8507 28.9848C23.6842 28.9478 22.5201 29.1252 21.4056 29.5098C21.3498 29.439 21.2931 29.369 21.2356 29.2998C18.7521 26.3546 14.1628 24.2703 14.3564 20.3101C14.4272 18.8698 14.8774 15.0793 23.1699 10.4803C29.9688 6.71258 35.4111 7.75033 36.3522 10.0481C37.6963 13.3311 33.4438 19.4298 26.3836 20.3101C25.6033 20.4862 24.7973 20.4648 24.0254 20.2472C23.2536 20.0297 22.5356 19.6217 21.925 19.0536C21.5535 18.5986 21.4984 18.5793 21.3599 18.6633C21.1349 18.8016 21.2781 19.2041 21.3599 19.4421C21.6303 19.9838 21.9952 20.4601 22.4333 20.843C22.8714 21.2258 23.3738 21.5075 23.9111 21.6716C26.687 22.3423 29.5823 22.0239 32.1863 20.7616C36.4687 18.9258 39.8084 13.8071 38.8279 9.52833ZM20.6281 31.7026C20.9407 32.9008 20.9248 34.1755 20.5825 35.3636C20.5458 35.4873 20.5054 35.6098 20.4613 35.7311C20.4172 35.8524 20.3695 35.9691 20.3181 36.0811C20.0532 36.6837 19.7101 37.2397 19.2998 37.7314C18.0203 39.2836 16.2308 39.8716 15.4644 39.3764C14.6366 38.8426 15.0505 36.6534 16.5346 34.9086C17.675 33.6547 18.9897 32.6135 20.4282 31.8251L20.6281 31.7026Z" fill="#202229"/>
</g>
</svg>
