<svg width="49" height="48" viewBox="0 0 49 48" fill="none" xmlns="http://www.w3.org/2000/svg">
<g opacity="0.75">
<path d="M31.2636 16L31.1491 16.5972C30.9719 17.7289 31.0361 18.0527 31.5218 18.4727L31.9906 18.8606L31.505 21.0263C31.2148 22.3184 30.8589 23.4013 30.6329 23.7572C30.4389 24.0641 30.2129 24.5162 30.164 24.7591C30.083 25.0493 29.8081 25.341 29.3881 25.5991C29.017 25.8098 28.2885 26.375 27.7722 26.8286C27.3599 27.1997 27.0758 27.4273 26.9215 27.525L26.4175 27.9236C26.2879 28.1158 26.1904 28.3278 26.1289 28.5514C26.0937 28.7148 26.1136 28.8232 26.1655 28.9026C26.2159 28.979 26.303 29.0325 26.4221 29.0661C26.5631 29.0991 26.7083 29.1109 26.8528 29.1012C27.1797 29.0788 27.5034 29.0215 27.8181 28.9301C27.925 28.9011 28.009 28.8736 28.0823 28.8492C28.1953 28.7102 28.4565 28.4475 28.9192 27.9908C30.1472 26.7797 30.6161 26.1168 30.1319 26.2955C29.9532 26.3597 30.0342 26.1978 30.3412 25.874C30.9887 25.2432 31.3599 24.2902 32.1357 21.3013C32.7497 18.9416 32.7497 18.908 33.2018 18.908C33.4141 18.908 34.0143 18.9446 34.0143 18.9446V16H32.6367H31.2636ZM37.127 20.8339C37.0292 20.8339 36.8673 20.9805 36.7711 21.1424C36.5939 21.4326 36.8032 21.6098 39.4698 23.2745C41.0536 24.278 42.3305 25.1333 42.2984 25.1989C42.2663 25.2463 40.9727 26.0878 39.4225 27.0577C36.6092 28.8018 36.5939 28.8186 36.852 29.1745C37.1758 29.5945 36.852 29.7396 40.5038 27.4609L43.1552 25.764V24.4872L40.1968 22.6606C38.5977 21.6586 37.2079 20.8507 37.127 20.8339ZM12.5603 21.0126C12.4794 21.0126 11.0895 21.8373 9.49045 22.8225L6.5 24.6491V25.9259L9.47365 27.7846C11.1231 28.8018 12.513 29.6434 12.5771 29.6434C12.6413 29.6434 12.7711 29.4968 12.9009 29.3196C13.0949 29.0126 12.9315 28.8828 10.2006 27.1539C7.59966 25.5212 7.32474 25.2952 7.58438 25.118C7.74628 25.005 8.97423 24.2444 10.2999 23.4212C13.3225 21.5624 13.1606 21.6907 12.9177 21.3028C12.8215 21.1424 12.6581 20.9973 12.5619 21.0126H12.5603ZM25.8234 21.0477C25.3774 21.0447 24.4183 21.7243 21.547 24.0687C21.4233 24.3635 21.4126 24.5666 21.4691 24.698C21.5057 24.7881 21.5729 24.8507 21.6661 24.8965C21.7577 24.9423 21.8769 24.9698 22.0082 24.9805C22.2694 25.0034 22.5779 24.9622 22.8268 24.9133L22.9948 24.8751C23.0524 24.798 23.1279 24.7362 23.2148 24.6949C23.3919 24.5972 24.1357 23.9191 24.8795 23.1921C26.1884 21.8664 26.4954 21.2677 25.9624 21.0737C25.9187 21.0563 25.8705 21.0475 25.8234 21.0477ZM29.1774 21.9687C28.7848 21.9794 28.0777 22.4345 26.8666 23.4013C26.2587 23.8946 25.8738 24.1604 25.6676 24.2153L24.8673 24.8477C24.5664 25.3975 24.5221 25.7381 24.6016 25.9259C24.6214 25.9723 24.6503 26.0142 24.6865 26.0493C24.7227 26.0845 24.7654 26.1121 24.8123 26.1306C24.929 26.1767 25.0534 26.2 25.1789 26.1993C25.4787 26.1961 25.7766 26.1524 26.0647 26.0695C26.2149 26.0292 26.3631 25.9823 26.5092 25.929L26.5535 25.9107L26.6344 25.8679C26.7871 25.6709 27.1384 25.2997 27.5783 24.8721C28.9681 23.5311 29.6783 22.5781 29.5332 22.2222C29.4675 22.0496 29.3545 21.9626 29.1774 21.9687ZM25.4752 23.6182C25.3622 23.6304 25.1086 23.8259 24.652 24.226C23.9922 24.8095 23.2728 25.1455 23.0239 24.9958C22.966 25.0089 22.908 25.0211 22.8498 25.0325C22.5962 25.0829 22.2801 25.1241 21.9975 25.1012C21.8644 25.0931 21.7339 25.0605 21.6126 25.005C21.4983 24.9527 21.407 24.8603 21.3561 24.7453C21.2995 24.6079 21.2995 24.4368 21.3637 24.2184L20.3709 25.034L18.1243 26.8927V29.9061L25.4859 24.1069C25.4844 24.0434 25.4927 23.9801 25.5103 23.9191C25.5668 23.7144 25.5638 23.6105 25.4752 23.6197V23.6182ZM28.6428 24.5941C28.5313 24.5941 28.345 24.7514 28.0472 25.0676C27.6424 25.4998 27.0055 25.9183 26.668 26.0038L26.6161 26.0313C26.5607 26.0542 26.5046 26.0756 26.4481 26.0955C26.3564 26.126 26.2373 26.1627 26.0998 26.1993C25.8249 26.2741 25.4828 26.3429 25.1774 26.3352C25.0333 26.3351 24.8907 26.3071 24.7573 26.2528C24.6316 26.2009 24.5309 26.1024 24.4763 25.9779C24.3877 25.7656 24.4229 25.4677 24.6168 25.0447L18.1228 30.1596V32H20.9758L27.0269 27.247C27.1842 27.0729 27.421 26.8347 27.7402 26.5368C28.5955 25.7442 28.7894 25.4708 28.7894 25.0661C28.7894 24.7514 28.7543 24.5926 28.6428 24.5926V24.5941ZM30.083 27.5724L29.5653 28.0886C29.2751 28.3635 28.7573 28.7026 28.403 28.8477L28.3328 28.8782L28.3282 28.8858L28.3129 28.9011C28.2992 28.9118 28.293 28.9133 28.2824 28.9179C28.1409 28.9714 27.9972 29.0188 27.8517 29.0599C27.528 29.1541 27.1952 29.213 26.8589 29.2356C26.6999 29.2458 26.5403 29.2319 26.3855 29.1943C26.2511 29.1648 26.1324 29.0864 26.0525 28.9744C25.9792 28.8614 25.9578 28.7102 25.999 28.5239C26.0318 28.3912 26.0806 28.263 26.1441 28.142L21.2614 32H27.7554L28.5313 31.1111C29.5974 29.8679 30.083 28.979 30.083 28.2184V27.5724Z" fill="white"/>
<rect x="1" y="0.5" width="47" height="47" stroke="white"/>
</g>
</svg>
