<svg width="44" height="48" viewBox="0 0 44 48" fill="none" xmlns="http://www.w3.org/2000/svg">
<g opacity="0.75" clip-path="url(#clip0_17_2272)">
<path d="M33.626 16.3736L21.9835 23.0976L10.3403 16.374L21.9835 9.9689L33.626 16.3736ZM23.0136 24.8844V37.1799L34.6169 30.7987V18.1831L23.0136 24.8844ZM1.86063 37.101L20.9511 47.8997V39.5338L9.01469 32.9692L1.86063 37.101ZM20.9511 37.1799V24.883L9.34787 18.1825V30.7987L20.9511 37.18V37.1799ZM23.0136 0.100405V8.18156L35.7136 15.168L42.608 11.1862L23.0136 0.100405ZM34.9521 32.9682L23.0136 39.5338V47.8996L42.1066 37.0996L34.9521 32.9682ZM36.6794 16.992V31.584L43.621 35.5926V12.9829L36.6794 16.992ZM8.25269 15.1684L20.9511 8.18278V0.100405L1.35672 11.1862L8.25269 15.1684ZM7.28537 31.5863V16.9915L0.34375 12.983V35.5953L7.28537 31.5863Z" fill="white"/>
</g>
<defs>
<clipPath id="clip0_17_2272">
<rect width="43.3125" height="48" fill="white" transform="translate(0.34375)"/>
</clipPath>
</defs>
</svg>
